<svg xmlns="http://www.w3.org/2000/svg" xmlns:xlink="http://www.w3.org/1999/xlink" viewBox="0 0 348.04 240.01"><defs><style>.cls-1{fill:none;}.cls-2{isolation:isolate;}.cls-3{fill:#eac271;}.cls-4{clip-path:url(#clip-path);}.cls-5{fill:#9b8878;}.cls-16,.cls-6{fill:#bda999;}.cls-10,.cls-6{mix-blend-mode:multiply;}.cls-7{fill:#dd5454;}.cls-8{fill:#fadf9e;}.cls-9{fill:#ce9f73;}.cls-11{fill:#775d44;}.cls-12{fill:#686868;}.cls-13{fill:#fff;}.cls-14{clip-path:url(#clip-path-2);}.cls-15{fill:#baa898;}.cls-17{fill:#c49957;}.cls-18{clip-path:url(#clip-path-3);}.cls-19{fill:#212221;}.cls-20{fill:#a69e3b;}.cls-21{fill:#935e5a;}.cls-22{fill:#565550;opacity:0.8;}.cls-23{clip-path:url(#clip-path-4);}.cls-24{fill:#734742;}</style><clipPath id="clip-path" transform="translate(-379.65 -238.68)"><rect class="cls-1" x="523.46" y="334.03" width="181.37" height="120.57"/></clipPath><clipPath id="clip-path-2" transform="translate(-379.65 -238.68)"><rect class="cls-1" x="401.95" y="319.31" width="130.12" height="136.19"/></clipPath><clipPath id="clip-path-3" transform="translate(-379.65 -238.68)"><path class="cls-1" d="M499.75,383.77C498.83,372.2,484.54,363,467,363s-31.83,9.2-32.75,20.77h-0.09v72.1h65.67v-72.1h-0.09Z"/></clipPath><clipPath id="clip-path-4" transform="translate(-379.65 -238.68)"><path class="cls-1" d="M667.41,394.73s6-3.73,5.87-5.57-5.52-.92-7.67,0l0.15-2s6.07-2.24,3.42-6.5c0,0-1.85,3.7-4.19,4,0,0-7.21-2.15-8.9.31,0,0-4.6,1.38-3.68-3.53,0,0-3.68,0-1.84,4.45a11.44,11.44,0,0,0-6.6-.15,5,5,0,0,0,.15,3.38,34.45,34.45,0,0,1-10.44-3.38s-1.84-.15-8.9,1.07-32.08.61-36.83-.92-6.14-3.84-7.67-3.07c0,0-13.12,9-14.32,9.93-0.33.27-2.71,1.8-3.47,3.1,0,0-5.33,32.2-5.18,33s-2.83,11.45-1.11,13,3.07-5.35,4.57-7.59-0.35-4.91-.35-6.85a203.38,203.38,0,0,1,4.67-24.16c1.62,6.49,4,16.69,4,16.69s-2.78,10.36-3.07,13.2,3.22,24.56,3.22,24.56l4.91,0.31-2.75-6.91s0.15-17.85.22-15.19,0.08-5.68.08-5.68l8.26,23,2.94,6.27,5.74-1-5.31-5.55s-2.73-13.59-2.77-17.24,2.8-7.09,2.8-7.09,1.07,4.3,2.46,3.38c1.08-.72.75-2.84,0.56-3.74,0.26,1,1,3.48,2.27,3.11,1.53-.46.4-4.13,0.4-4.13s2.3,5.22,3.22,3.22a5.72,5.72,0,0,0-.15-4.3s4-3.07,4.3-6.29c0,0,14.12,11.82,29.93,2.46l1.69,11.2s4.45,20.72,4.45,20.87a19.76,19.76,0,0,0,2.92-.61l1.53,2.62,6-.92-4.7-6.15L636,438.12a8.46,8.46,0,0,0,2.32-3.72c0.72-2.37-.79-9.94,1.21-11.17s8.75-2.61,9.82-4.14,5.06-11.2,7.21-11.05,6.75,3.68,9.21,3.22a9.47,9.47,0,0,0,4.6-1.84c0.61-.61,1.38-0.61,1.53-1.07s0.31-3.22-3.38-8.29S667.41,394.73,667.41,394.73Z"/></clipPath></defs><title>a</title><g class="cls-2"><g id="OBJECTS"><rect class="cls-3" x="143.8" y="95.35" width="181.37" height="120.57"/><g class="cls-4"><rect class="cls-5" x="135.89" y="190.41" width="212.15" height="40.07"/><path class="cls-6" d="M713.86,436.05v-1H528.78v1h21.38v10H528.78v1h50.07v10H551.47v-0.17h-1.32V457H528.78v1h21.38v9.79h1.32V458H608V468.6h1V458H676.8v9.79h1.31V458h35.75v-1H678.11v-0.17H676.8V457h-40V447h77v-1H678.11v-10h35.75Zm-162.39,0H608v10H551.47v-10Zm84.31,21H579.88V447h55.91v10Zm41-11H609v-10H676.8v10Z" transform="translate(-379.65 -238.68)"/></g><polygon class="cls-7" points="338.57 129.36 148.96 129.36 148.96 67.53 319.18 67.53 338.57 129.36"/><rect class="cls-8" x="22.29" y="80.63" width="130.12" height="136.19"/><polygon class="cls-7" points="152.15 81.01 146.93 34.29 87.16 0 27.59 34.62 22.57 81.01 152.15 81.01"/><polygon class="cls-9" points="142.52 80.5 137.88 39.28 87.2 10.42 37.15 39.79 33.28 80.75 142.52 80.5"/><g class="cls-10"><polygon class="cls-7" points="142.52 80.5 137.88 39.28 87.2 10.42 37.15 39.79 33.28 80.75 142.52 80.5"/></g><rect class="cls-11" x="22.11" y="77.15" width="130.49" height="8.24"/><rect class="cls-12" x="56.21" y="36.96" width="29.54" height="29.54"/><rect class="cls-12" x="89.87" y="36.96" width="29.54" height="29.54"/><path class="cls-13" d="M433,272.93v34h34v-34H433Zm29.76,29.76h-25.5V277.18h25.5v25.51Z" transform="translate(-379.65 -238.68)"/><rect class="cls-13" x="429.27" y="287.87" width="41.53" height="4.12" transform="translate(-451.31 171.38) rotate(-45.76)"/><rect class="cls-13" x="447.97" y="269.17" width="4.12" height="41.53" transform="translate(-451.3 171.43) rotate(-45.76)"/><path class="cls-13" d="M468.07,272.93v34h34v-34h-34Zm29.76,29.76h-25.5V277.18h25.5v25.51Z" transform="translate(-379.65 -238.68)"/><rect class="cls-13" x="464.31" y="287.87" width="41.53" height="4.12" transform="translate(-440.64 196.76) rotate(-45.79)"/><rect class="cls-13" x="483.01" y="269.17" width="4.12" height="41.53" transform="translate(-440.7 196.53) rotate(-45.76)"/><g class="cls-14"><rect class="cls-15" x="9.48" y="180.62" width="169.9" height="40.07"/><g class="cls-10"><polygon class="cls-16" points="136.76 208.37 135.73 208.37 135.73 208.54 37.58 208.54 37.58 208.37 36.55 208.37 36.55 208.54 19.8 208.54 19.8 209.57 36.55 209.57 36.55 219.36 37.58 219.36 37.58 209.57 135.73 209.57 135.73 219.36 136.76 219.36 136.76 209.57 164.76 209.57 164.76 208.54 136.76 208.54 136.76 208.37"/><path class="cls-16" d="M544.41,426.26v-1h-145v1H416.2v10H399.45v1h145v-1h-28v-10h28Zm-29,10H417.23v-10h98.16v10Z" transform="translate(-379.65 -238.68)"/></g></g><path class="cls-12" d="M503,381.21c-1-12-16.71-21.54-36-21.54s-35,9.54-36,21.54h-0.1V456h72.15V381.21H503Z" transform="translate(-379.65 -238.68)"/><path class="cls-17" d="M500.83,382.62c-0.95-11.77-15.71-21.13-33.82-21.13s-32.87,9.36-33.82,21.13h-0.09V456h67.83V382.62h-0.09Z" transform="translate(-379.65 -238.68)"/><g class="cls-18"><rect class="cls-11" x="58.8" y="113.61" width="4.24" height="114.29"/><rect class="cls-11" x="67.61" y="113.61" width="4.24" height="114.29"/><rect class="cls-11" x="76.42" y="113.61" width="4.24" height="114.29"/><rect class="cls-11" x="85.23" y="113.61" width="4.23" height="114.29"/><rect class="cls-11" x="94.04" y="113.61" width="4.24" height="114.29"/><rect class="cls-11" x="102.86" y="113.61" width="4.24" height="114.29"/><rect class="cls-11" x="111.67" y="113.61" width="4.23" height="114.29"/></g><circle class="cls-19" cx="116.17" cy="175.18" r="2.53"/><rect class="cls-19" x="49.82" y="147.37" width="4.27" height="10.62"/><rect class="cls-19" x="49.82" y="190.6" width="4.27" height="10.62"/><rect class="cls-12" x="202.8" y="149.28" width="29.54" height="29.54"/><rect class="cls-12" x="236.47" y="149.28" width="29.54" height="29.54"/><path class="cls-13" d="M579.62,385.26v34h34v-34h-34ZM609.38,415H583.87V389.51h25.51V415Z" transform="translate(-379.65 -238.68)"/><rect class="cls-13" x="575.86" y="400.2" width="41.53" height="4.12" transform="translate(-487.44 310.47) rotate(-45.77)"/><rect class="cls-13" x="594.56" y="381.49" width="4.12" height="41.53" transform="translate(-487.44 310.47) rotate(-45.77)"/><path class="cls-13" d="M614.66,385.26v34h34v-34h-34ZM644.42,415H618.91V389.51h25.51V415Z" transform="translate(-379.65 -238.68)"/><rect class="cls-13" x="610.9" y="400.2" width="41.53" height="4.12" transform="translate(-476.82 335.7) rotate(-45.78)"/><rect class="cls-13" x="629.6" y="381.49" width="4.12" height="41.53" transform="translate(-476.84 335.58) rotate(-45.77)"/><rect class="cls-20" y="212.53" width="342.13" height="8.5"/><path class="cls-21" d="M667.41,394.73s6-3.73,5.87-5.57-5.52-.92-7.67,0l0.15-2s6.07-2.24,3.42-6.5c0,0-1.85,3.7-4.19,4,0,0-7.21-2.15-8.9.31,0,0-4.6,1.38-3.68-3.53,0,0-3.68,0-1.84,4.45a11.44,11.44,0,0,0-6.6-.15,5,5,0,0,0,.15,3.38s-8.16-2.28-10.44-3.38c0,0-1.84-.15-8.9,1.07s-32.08.61-36.83-.92-6.14-3.84-7.67-3.07c0,0-13.12,9-14.32,9.93-0.33.27-2.71,1.8-3.47,3.1,0,0-5.33,32.2-5.18,33s-2.83,11.45-1.11,13,3.07-5.35,4.57-7.59-0.35-4.91-.35-6.85a203.38,203.38,0,0,1,4.67-24.16c1.62,6.49,4,16.69,4,16.69s-2.78,10.36-3.07,13.2,3.22,24.56,3.22,24.56l4.91,0.31-2.75-6.91s0.15-17.85.22-15.19,0.08-5.68.08-5.68l8.26,23,2.94,6.27,5.74-1-5.31-5.55s-2.73-13.59-2.77-17.24,2.8-7.09,2.8-7.09,1.07,4.3,2.46,3.38c1.08-.72.75-2.84,0.56-3.74,0.26,1,1,3.48,2.27,3.11,1.53-.46.4-4.13,0.4-4.13s2.3,5.22,3.22,3.22a5.72,5.72,0,0,0-.15-4.3s4-3.07,4.3-6.29c0,0,14.12,11.82,29.93,2.46l1.69,11.2s4.45,20.72,4.45,20.87a19.76,19.76,0,0,0,2.92-.61l1.53,2.62,6-.92-4.7-6.15L636,438.12l2.32-3.72s-0.79-9.94,1.21-11.17,8.75-2.61,9.82-4.14,5.06-11.2,7.21-11.05,6.75,3.68,9.21,3.22a9.47,9.47,0,0,0,4.6-1.84c0.61-.61,1.38-0.61,1.53-1.07s0.31-3.22-3.38-8.29S667.41,394.73,667.41,394.73Z" transform="translate(-379.65 -238.68)"/><ellipse class="cls-19" cx="658.91" cy="394.77" rx="0.93" ry="2.03" transform="translate(-429.9 451.22) rotate(-53.52)"/><circle class="cls-22" cx="658.89" cy="395" r="0.6" transform="translate(-203.03 754.3) rotate(-82.06)"/><path class="cls-19" d="M662.83,407.11a13.19,13.19,0,0,0,1,1.32,4.17,4.17,0,0,0,1.17,1,1.43,1.43,0,0,0,.7.17l0.46,0c0.17,0,.29,0,0.44-0.06a4.84,4.84,0,0,0,.86-0.21,8.44,8.44,0,0,0,.81-0.35,8,8,0,0,1,1.61-.7,3.61,3.61,0,0,1,1.27-.1l0.47,0.08-0.45.12a5.89,5.89,0,0,0-1.07.44c-0.41.23-.84,0.57-1.38,0.93a4.85,4.85,0,0,1-2,.78c-0.18,0-.39,0-0.55,0h-0.53a2.29,2.29,0,0,1-1.11-.39,3.77,3.77,0,0,1-1.19-1.43A4.91,4.91,0,0,1,662.83,407.11Z" transform="translate(-379.65 -238.68)"/><path class="cls-19" d="M670.39,403.61s-0.59.05-1.44,0.08l-1.44,0c-0.52,0-1.07,0-1.61.1-0.27,0-.53.06-0.79,0.09s-0.51.08-.73,0.16a3.28,3.28,0,0,0-.63.24,1.81,1.81,0,0,0-.5.32,1.44,1.44,0,0,0-.34.38,1,1,0,0,0-.2.37l-0.15.37s0-.14,0-0.41a1,1,0,0,1,0-.48,1.52,1.52,0,0,1,.25-0.6L663,404a2.33,2.33,0,0,1,.31-0.26,2.75,2.75,0,0,1,.74-0.44,5.78,5.78,0,0,1,1.74-.43,9.38,9.38,0,0,1,1.73,0,9,9,0,0,1,1.47.26A6.88,6.88,0,0,1,670.39,403.61Z" transform="translate(-379.65 -238.68)"/><path class="cls-19" d="M664.61,405.77a3.62,3.62,0,0,1,1.89.84,2.47,2.47,0,0,1,.33.34,1.22,1.22,0,0,1,.25.44,1.14,1.14,0,0,1,0,.5,1.09,1.09,0,0,1-.18.41,1,1,0,0,1-.75.43l-0.12-.08a5.21,5.21,0,0,0-.28-0.62,1.06,1.06,0,0,1-.17-0.27,0.82,0.82,0,0,1,0-.18,0.59,0.59,0,0,0,0-.25,3.58,3.58,0,0,0-.62-1l-0.4-.45Z" transform="translate(-379.65 -238.68)"/><path class="cls-19" d="M670.34,405.44s0,0.14,0,.35a2.12,2.12,0,0,0,.13.66,1,1,0,0,0,.16.2,0.07,0.07,0,0,1,0,.07,0.37,0.37,0,0,0,0,.11c0.05,0.13.13,0.38,0.13,0.38l0,0.09a0.71,0.71,0,0,1-.5.12,0.8,0.8,0,0,1-.44-0.31,1.22,1.22,0,0,1-.06-0.57,1.78,1.78,0,0,1,.26-0.82c0.12-.19.2-0.3,0.2-0.3Z" transform="translate(-379.65 -238.68)"/><path class="cls-19" d="M660.63,406.34a5.58,5.58,0,0,1,.17,1.72l-0.12-.38a8.6,8.6,0,0,1,.68.6,8.21,8.21,0,0,1,.6.67,5.63,5.63,0,0,1,.95,1.6,5.64,5.64,0,0,1-1.59-1,8.21,8.21,0,0,1-.66-0.61,8.54,8.54,0,0,1-.59-0.68l-0.07-.09a0.32,0.32,0,0,1-.05-0.29A5.55,5.55,0,0,1,660.63,406.34Z" transform="translate(-379.65 -238.68)"/><path class="cls-19" d="M658.7,408.27a1.21,1.21,0,0,1,.21-0.33,1,1,0,0,1,.54-0.31,1,1,0,0,1,.61.11,0.29,0.29,0,0,1,.09.57,1,1,0,0,1-.54.31,1,1,0,0,1-.61-0.12A1.22,1.22,0,0,1,658.7,408.27Z" transform="translate(-379.65 -238.68)"/><g class="cls-23"><path class="cls-24" d="M566.44,411.13c1.59,0.92,3.7,1.14,5.49,1.63,2.57,0.71,5.17,1.87,7.84,2.18a43.69,43.69,0,0,0,12.54-.18,17.87,17.87,0,0,1,7.41-.19c3.08,0.76,5.71,2.52,8.69,3.5a32.32,32.32,0,0,0,10.13,1.27c3.6,0,6.32-1.86,9.47-3.33,2.9-1.35,6.71-.77,9.82-0.77a33.65,33.65,0,0,0,10.44-1.51c3.56-1.14,8.45-2.72,11.83-.19,5,3.74.39,12.21-.56,16.7-0.5,2.37-1.09,4.78-1.39,7.19s-0.09,4.86-.51,7.24a23.74,23.74,0,0,1-9.4,14.64,97,97,0,0,1-21.29,12.19c-8.36,3.51-17.75,7.11-26.94,7.19a59.36,59.36,0,0,1-10.16-.48c-3.41-.56-6.76-1.48-10.13-2.24-6.26-1.42-12.76-3.46-17.14-8.42a53.78,53.78,0,0,1-8.68-14.14,21.59,21.59,0,0,1-.79-15.5,60.91,60.91,0,0,1,5.14-12,45.89,45.89,0,0,0,4.09-8.44,50.88,50.88,0,0,1,2.36-5.12" transform="translate(-379.65 -238.68)"/></g></g></g></svg>