<svg xmlns="http://www.w3.org/2000/svg" xmlns:xlink="http://www.w3.org/1999/xlink" viewBox="0 0 408.95 285.62"><defs><style>.cls-1,.cls-11,.cls-15,.cls-8{fill:none;}.cls-2{isolation:isolate;}.cls-18,.cls-3,.cls-5{fill:#bfc3c3;}.cls-4{clip-path:url(#clip-path);}.cls-14,.cls-19,.cls-23,.cls-5{opacity:0.5;}.cls-14,.cls-18,.cls-19,.cls-23,.cls-5{mix-blend-mode:multiply;}.cls-6{fill:#212221;}.cls-7{fill:#fffdf0;opacity:0.8;}.cls-11,.cls-15,.cls-8{stroke:#212221;stroke-miterlimit:10;}.cls-8{stroke-width:0.38px;}.cls-9{fill:#a3a3a3;}.cls-10{clip-path:url(#clip-path-2);}.cls-11{stroke-width:0.17px;}.cls-12,.cls-14{fill:#f49d4e;}.cls-13{clip-path:url(#clip-path-3);}.cls-15{stroke-width:0.22px;}.cls-16{fill:#686868;}.cls-17{clip-path:url(#clip-path-4);}.cls-20{fill:#fadf9e;}.cls-21,.cls-23{fill:#bb5151;}.cls-22{clip-path:url(#clip-path-5);}.cls-24{clip-path:url(#clip-path-6);}.cls-25{clip-path:url(#clip-path-7);}.cls-26{clip-path:url(#clip-path-8);}.cls-27{fill:#1f1f1f;}.cls-28{clip-path:url(#clip-path-9);}.cls-29{clip-path:url(#clip-path-10);}.cls-30{clip-path:url(#clip-path-11);}.cls-31{clip-path:url(#clip-path-12);}.cls-32{clip-path:url(#clip-path-13);}.cls-33{clip-path:url(#clip-path-14);}.cls-34{clip-path:url(#clip-path-15);}.cls-35{clip-path:url(#clip-path-16);}.cls-36{clip-path:url(#clip-path-17);}.cls-37{clip-path:url(#clip-path-18);}.cls-38{clip-path:url(#clip-path-19);}.cls-39{clip-path:url(#clip-path-20);}.cls-40{fill:#dd5454;}.cls-41{clip-path:url(#clip-path-21);}</style><clipPath id="clip-path" transform="translate(-319.51 -466.25)"><path class="cls-1" d="M711.33,700.56a1.75,1.75,0,0,0-.57.1c-0.07-8.51-9.61-26.05-27.55-21.21,0,0-1.54-8.52-5.27-10.86a28.39,28.39,0,0,0,2-3.41c2.25-4.41,3-8.51,1.77-9.15s-4.11,2.41-6.35,6.82q-0.38.75-.7,1.48c0.08-.86.12-1.78,0.12-2.73,0-4.95-1.15-9-2.57-9s-2.57,4-2.57,9a23.23,23.23,0,0,0,.83,6.58,11.33,11.33,0,0,0-8.21,6.12c-3.55,6.38-6,3.26-5.85,6.21,0.1,2.14,4.61,4.08,6.21,4.43s5.32,1.77,5.32,1.77-3.37,9.75,1.77,16.14-5.14,5.14-5,8.16,1.22,3,4.08,3,5,0.53,5.32-.71,3.72-4.79,3.72-4.79-3.23,5.05,2.13,5.31c6.76,0.33,19.33,0,19.33,0s8.48-3.59,10.89-10.14a1.76,1.76,0,0,0,2.87-1.38A1.77,1.77,0,0,0,711.33,700.56Z"/></clipPath><clipPath id="clip-path-2" transform="translate(-319.51 -466.25)"><path class="cls-1" d="M619.1,704.71a1,1,0,0,1,.34.06c0-5.05,5.7-15.46,16.35-12.58,0,0,.91-5.06,3.13-6.45a16.92,16.92,0,0,1-1.21-2c-1.33-2.62-1.8-5-1-5.43s2.44,1.43,3.77,4c0.15,0.3.29,0.59,0.41,0.88,0-.51-0.07-1.05-0.07-1.62,0-2.94.68-5.32,1.53-5.32s1.53,2.38,1.53,5.32a13.79,13.79,0,0,1-.49,3.91,6.73,6.73,0,0,1,4.87,3.63c2.1,3.79,3.55,1.93,3.47,3.68-0.06,1.27-2.74,2.42-3.68,2.63s-3.16,1.05-3.16,1.05,2,5.79-1.05,9.58,3,3.05,2.95,4.84-0.72,1.75-2.42,1.79-2.95.32-3.16-.42a14.82,14.82,0,0,0-2.21-2.84s1.92,3-1.26,3.15c-4,.19-11.47,0-11.47,0s-5-2.13-6.46-6a1,1,0,0,1-.65.23A1.05,1.05,0,1,1,619.1,704.71Z"/></clipPath><clipPath id="clip-path-3" transform="translate(-319.51 -466.25)"><path class="cls-1" d="M382.21,663.36a6,6,0,0,0-.8-1.28,13.88,13.88,0,0,1-.89-1.58,12.44,12.44,0,0,0-.91-1.61,2.21,2.21,0,0,1-.31-1.41,5.54,5.54,0,0,1,.18-0.8,2.71,2.71,0,0,0,.06-0.67c0-.43-0.09-1.27-0.61-1.4a1,1,0,0,0-.8.23,3.63,3.63,0,0,1-.49.74c-0.61.19-.63-1.54-0.66-1.83-0.06-.55-0.16-1.28-0.92-1a2.5,2.5,0,0,0-.52.59,0.48,0.48,0,0,1-.6-0.3,5.11,5.11,0,0,1-.26-1.27,2.37,2.37,0,0,0-.28-1,0.78,0.78,0,0,0-.81,0,1.17,1.17,0,0,0-.44.78,1.66,1.66,0,0,1-.54,1,1.42,1.42,0,0,1-.68-0.82,1.82,1.82,0,0,0-.87-0.91,1.3,1.3,0,0,0-1,.31c-0.52.46,0.09,1.52,0.35,2a3.66,3.66,0,0,1,.56,1.27c0,0.31.18,0.56,0.22,0.84a4.46,4.46,0,0,0-.38,2.74s-1.85,9.25-6,10.2c-6.78,1.55-14-1-19.67-4.67s-10.62-14.33-10.62-14.33-5-9.5-5.44-6.92a21,21,0,0,0,.5,7.41s-6.1-3.63-5-1.13c0.83,1.9,3.77,8,3.77,8s-6.35,1.32-4.12,2.31,5.61,5.1,5.61,5.1-5-2-5.25-.58,2.74,3.21,4.76,21.82C331,701,347.11,700,347.11,700l8.15,8.4-7.16.74,0.16,1.47,8-1.22L366.94,713l1.91-.64L357,708.18l-3-5.68c21.54-1.39,18.11-31,21.26-35.31a2.53,2.53,0,0,0,3-1,3,3,0,0,0,.47-1.26,3.65,3.65,0,0,0,.41-1.16,1,1,0,0,1,.23-0.19,2.83,2.83,0,0,1,1.35-.26c0.5,0,1,0,1.51,0h0Z"/></clipPath><clipPath id="clip-path-4" transform="translate(-319.51 -466.25)"><rect class="cls-1" x="424.77" y="556.17" width="197.34" height="165.84"/></clipPath><clipPath id="clip-path-5" transform="translate(-319.51 -466.25)"><path class="cls-1" d="M326.47,661.36c-1.83,0-3.31,2.17-3.31,4.84,0,0.38,0,55.26,0,55.26h6.58s0-54.88,0-55.26C329.78,663.52,328.3,661.36,326.47,661.36Z"/></clipPath><clipPath id="clip-path-6" transform="translate(-319.51 -466.25)"><path class="cls-1" d="M339.72,661.36c-1.83,0-3.31,2.17-3.31,4.84,0,0.38,0,55.26,0,55.26H343s0-54.88,0-55.26C343,663.52,341.55,661.36,339.72,661.36Z"/></clipPath><clipPath id="clip-path-7" transform="translate(-319.51 -466.25)"><path class="cls-1" d="M353.38,661.36c-1.83,0-3.31,2.17-3.31,4.84,0,0.38,0,55.26,0,55.26h6.58s0-54.88,0-55.26C356.69,663.52,355.21,661.36,353.38,661.36Z"/></clipPath><clipPath id="clip-path-8" transform="translate(-319.51 -466.25)"><path class="cls-1" d="M366.63,661.36c-1.83,0-3.31,2.17-3.31,4.84,0,0.38,0,55.26,0,55.26h6.57s0-54.88,0-55.26C369.94,663.52,368.45,661.36,366.63,661.36Z"/></clipPath><clipPath id="clip-path-9" transform="translate(-319.51 -466.25)"><path class="cls-1" d="M380,661.36c-1.83,0-3.31,2.17-3.31,4.84,0,0.38,0,55.26,0,55.26h6.58s0-54.88,0-55.26C383.34,663.52,381.86,661.36,380,661.36Z"/></clipPath><clipPath id="clip-path-10" transform="translate(-319.51 -466.25)"><path class="cls-1" d="M393.27,661.36c-1.83,0-3.31,2.17-3.31,4.84,0,0.38,0,55.26,0,55.26h6.57s0-54.88,0-55.26C396.58,663.52,395.1,661.36,393.27,661.36Z"/></clipPath><clipPath id="clip-path-11" transform="translate(-319.51 -466.25)"><path class="cls-1" d="M406.94,661.36c-1.83,0-3.31,2.17-3.31,4.84,0,0.38,0,55.26,0,55.26h6.58s0-54.88,0-55.26C410.25,663.52,408.77,661.36,406.94,661.36Z"/></clipPath><clipPath id="clip-path-12" transform="translate(-319.51 -466.25)"><path class="cls-1" d="M420.18,661.36c-1.83,0-3.31,2.17-3.31,4.84,0,0.38,0,55.26,0,55.26h6.58s0-54.88,0-55.26C423.49,663.52,422,661.36,420.18,661.36Z"/></clipPath><clipPath id="clip-path-13" transform="translate(-319.51 -466.25)"><path class="cls-1" d="M624,661.36c-1.83,0-3.31,2.17-3.31,4.84,0,0.38,0,55.26,0,55.26h6.58s0-54.88,0-55.26C627.35,663.52,625.87,661.36,624,661.36Z"/></clipPath><clipPath id="clip-path-14" transform="translate(-319.51 -466.25)"><path class="cls-1" d="M637.28,661.36c-1.83,0-3.31,2.17-3.31,4.84,0,0.38,0,55.26,0,55.26h6.57s0-54.88,0-55.26C640.6,663.52,639.12,661.36,637.28,661.36Z"/></clipPath><clipPath id="clip-path-15" transform="translate(-319.51 -466.25)"><path class="cls-1" d="M650.95,661.36c-1.83,0-3.31,2.17-3.31,4.84,0,0.38,0,55.26,0,55.26h6.58s0-54.88,0-55.26C654.26,663.52,652.78,661.36,650.95,661.36Z"/></clipPath><clipPath id="clip-path-16" transform="translate(-319.51 -466.25)"><path class="cls-1" d="M664.19,661.36c-1.83,0-3.31,2.17-3.31,4.84,0,0.38,0,55.26,0,55.26h6.57s0-54.88,0-55.26C667.5,663.52,666,661.36,664.19,661.36Z"/></clipPath><clipPath id="clip-path-17" transform="translate(-319.51 -466.25)"><path class="cls-1" d="M677.59,661.36c-1.83,0-3.31,2.17-3.31,4.84,0,0.38,0,55.26,0,55.26h6.58s0-54.88,0-55.26C680.91,663.52,679.42,661.36,677.59,661.36Z"/></clipPath><clipPath id="clip-path-18" transform="translate(-319.51 -466.25)"><path class="cls-1" d="M690.84,661.36c-1.83,0-3.31,2.17-3.31,4.84,0,0.38,0,55.26,0,55.26h6.57s0-54.88,0-55.26C694.15,663.52,692.67,661.36,690.84,661.36Z"/></clipPath><clipPath id="clip-path-19" transform="translate(-319.51 -466.25)"><path class="cls-1" d="M704.5,661.36c-1.83,0-3.31,2.17-3.31,4.84,0,0.38,0,55.26,0,55.26h6.58s0-54.88,0-55.26C707.81,663.52,706.33,661.36,704.5,661.36Z"/></clipPath><clipPath id="clip-path-20" transform="translate(-319.51 -466.25)"><path class="cls-1" d="M717.75,661.36c-1.83,0-3.31,2.17-3.31,4.84,0,0.38,0,55.26,0,55.26H721s0-54.88,0-55.26C721.06,663.52,719.58,661.36,717.75,661.36Z"/></clipPath><clipPath id="clip-path-21" transform="translate(-319.51 -466.25)"><polygon class="cls-1" points="626 558.03 523.44 485.17 420.87 558.03 425.08 558.03 424.77 722.01 622.11 722.01 622.21 558.03 626 558.03"/></clipPath></defs><title>as</title><g class="cls-2"><g id="OBJECTS"><path class="cls-3" d="M711.33,700.56a1.75,1.75,0,0,0-.57.1c-0.07-8.51-9.61-26.05-27.55-21.21,0,0-1.54-8.52-5.27-10.86a28.39,28.39,0,0,0,2-3.41c2.25-4.41,3-8.51,1.77-9.15s-4.11,2.41-6.35,6.82q-0.38.75-.7,1.48c0.08-.86.12-1.78,0.12-2.73,0-4.95-1.15-9-2.57-9s-2.57,4-2.57,9a23.23,23.23,0,0,0,.83,6.58,11.33,11.33,0,0,0-8.21,6.12c-3.55,6.38-6,3.26-5.85,6.21,0.1,2.14,4.61,4.08,6.21,4.43s5.32,1.77,5.32,1.77-3.37,9.75,1.77,16.14-5.14,5.14-5,8.16,1.22,3,4.08,3,5,0.53,5.32-.71,3.72-4.79,3.72-4.79-3.23,5.05,2.13,5.31c6.76,0.33,19.33,0,19.33,0s8.48-3.59,10.89-10.14a1.76,1.76,0,0,0,2.87-1.38A1.77,1.77,0,0,0,711.33,700.56Z" transform="translate(-319.51 -466.25)"/><g class="cls-4"><path class="cls-5" d="M666.06,689.92s1.42,0.2,10.11,3.84,7.88,7.88,18.2,8.9,18.6-9.3,22.85-3.64-1.42,19.61-1.42,19.61-49.53,11.73-50.54,11.12-15.77-18-15.37-18.8S666.06,689.92,666.06,689.92Z" transform="translate(-319.51 -466.25)"/></g><ellipse class="cls-6" cx="666.99" cy="673.8" rx="1.66" ry="0.76" transform="translate(-589.43 62.34) rotate(-36.48)"/><circle class="cls-7" cx="667.01" cy="673.99" r="0.49" transform="translate(-406.55 -367.21) rotate(-7.97)"/><path class="cls-6" d="M657.46,678.71c-0.17-.23-0.44-0.16-0.6.15L656.28,680c-0.16.31,0,.5,0.31,0.42l1.2-.3c0.33-.08.46-0.34,0.29-0.57Z" transform="translate(-319.51 -466.25)"/><polyline class="cls-8" points="342.12 214.34 341.84 215.68 339.15 216.9"/><line class="cls-8" x1="343.03" y1="216.38" x2="341.84" y2="215.68"/><path class="cls-9" d="M619.1,704.71a1,1,0,0,1,.34.06c0-5.05,5.7-15.46,16.35-12.58,0,0,.91-5.06,3.13-6.45a16.92,16.92,0,0,1-1.21-2c-1.33-2.62-1.8-5-1-5.43s2.44,1.43,3.77,4c0.15,0.3.29,0.59,0.41,0.88,0-.51-0.07-1.05-0.07-1.62,0-2.94.68-5.32,1.53-5.32s1.53,2.38,1.53,5.32a13.79,13.79,0,0,1-.49,3.91,6.73,6.73,0,0,1,4.87,3.63c2.1,3.79,3.55,1.93,3.47,3.68-0.06,1.27-2.74,2.42-3.68,2.63s-3.16,1.05-3.16,1.05,2,5.79-1.05,9.58,3,3.05,2.95,4.84-0.72,1.75-2.42,1.79-2.95.32-3.16-.42a14.82,14.82,0,0,0-2.21-2.84s1.92,3-1.26,3.15c-4,.19-11.47,0-11.47,0s-5-2.13-6.46-6a1,1,0,0,1-.65.23A1.05,1.05,0,1,1,619.1,704.71Z" transform="translate(-319.51 -466.25)"/><g class="cls-10"><path class="cls-5" d="M646,698.4a42.59,42.59,0,0,0-6,2.28c-5.16,2.16-4.68,4.68-10.8,5.28s-11-5.52-13.56-2.16,0.84,11.64.84,11.64,29.39,7,30,6.6,9.36-10.68,9.12-11.16S646,698.4,646,698.4Z" transform="translate(-319.51 -466.25)"/></g><ellipse class="cls-6" cx="645.41" cy="688.84" rx="0.45" ry="0.99" transform="translate(-611.75 331.46) rotate(-53.49)"/><circle class="cls-7" cx="645.4" cy="688.95" r="0.29" transform="translate(-446.54 765.43) rotate(-81.96)"/><path class="cls-6" d="M651.07,691.75c0.1-.13.26-0.09,0.36,0.09l0.35,0.67c0.09,0.18,0,.3-0.18.25l-0.71-.18c-0.2,0-.27-0.2-0.17-0.34Z" transform="translate(-319.51 -466.25)"/><polyline class="cls-11" points="329.09 226.62 329.26 227.41 330.85 228.13"/><line class="cls-11" x1="328.55" y1="227.83" x2="329.26" y2="227.41"/><path class="cls-6" d="M408.21,648.67a0.84,0.84,0,0,1-1-.26,0.93,0.93,0,0,1-.45-1,0.84,0.84,0,0,1,1,.26A0.93,0.93,0,0,1,408.21,648.67Z" transform="translate(-319.51 -466.25)"/><path class="cls-12" d="M382.21,663.36a6,6,0,0,0-.8-1.28,13.88,13.88,0,0,1-.89-1.58,12.44,12.44,0,0,0-.91-1.61,2.21,2.21,0,0,1-.31-1.41,5.54,5.54,0,0,1,.18-0.8,2.71,2.71,0,0,0,.06-0.67c0-.43-0.09-1.27-0.61-1.4a1,1,0,0,0-.8.23,3.63,3.63,0,0,1-.49.74c-0.61.19-.63-1.54-0.66-1.83-0.06-.55-0.16-1.28-0.92-1a2.5,2.5,0,0,0-.52.59,0.48,0.48,0,0,1-.6-0.3,5.11,5.11,0,0,1-.26-1.27,2.37,2.37,0,0,0-.28-1,0.78,0.78,0,0,0-.81,0,1.17,1.17,0,0,0-.44.78,1.66,1.66,0,0,1-.54,1,1.42,1.42,0,0,1-.68-0.82,1.82,1.82,0,0,0-.87-0.91,1.3,1.3,0,0,0-1,.31c-0.52.46,0.09,1.52,0.35,2a3.66,3.66,0,0,1,.56,1.27c0,0.31.18,0.56,0.22,0.84a4.46,4.46,0,0,0-.38,2.74s-1.85,9.25-6,10.2c-6.78,1.55-14-1-19.67-4.67s-10.62-14.33-10.62-14.33-5-9.5-5.44-6.92a21,21,0,0,0,.5,7.41s-6.1-3.63-5-1.13c0.83,1.9,3.77,8,3.77,8s-6.35,1.32-4.12,2.31,5.61,5.1,5.61,5.1-5-2-5.25-.58,2.74,3.21,4.76,21.82C331,701,347.11,700,347.11,700l8.15,8.4-7.16.74,0.16,1.47,8-1.22L366.94,713l1.91-.64L357,708.18l-3-5.68c21.54-1.39,18.11-31,21.26-35.31a2.53,2.53,0,0,0,3-1,3,3,0,0,0,.47-1.26,3.65,3.65,0,0,0,.41-1.16,1,1,0,0,1,.23-0.19,2.83,2.83,0,0,1,1.35-.26c0.5,0,1,0,1.51,0h0Z" transform="translate(-319.51 -466.25)"/><g class="cls-13"><path class="cls-14" d="M328.13,682c1.35,1.67,2,3.61,3.6,5.11a20.41,20.41,0,0,0,4.93,3.36,17.32,17.32,0,0,0,6.5,1.85c2.06,0.13,4.08-.24,6.06-0.22h2.69a26.64,26.64,0,0,1,3.09.46,20.24,20.24,0,0,0,7.4-.4,14.34,14.34,0,0,0,7.24-5.39c1-1.36,1.75-2.85,2.69-4.27a14.68,14.68,0,0,1,2.24-3.2c1.92-1.57,2.94,1.19,3.16,2.7a59,59,0,0,1,.21,8.47,45.9,45.9,0,0,1-.9,8.31c-0.55,3-.71,6.06-2,8.86-2.48,5.55-7,10.29-13.06,11.83-8.21,2.1-17.48,1.38-23-5.82-4.08-5.3-5.84-12.34-7.79-18.65-0.71-2.29-2.5-4-3.08-6.27a18.08,18.08,0,0,1-.45-2.92c-0.06-.67.3-2.36-0.23-2.69" transform="translate(-319.51 -466.25)"/></g><ellipse class="cls-6" cx="375.5" cy="658.34" rx="0.45" ry="0.99" transform="translate(-696.64 102.85) rotate(-53.54)"/><circle class="cls-7" cx="375.49" cy="658.46" r="0.29" transform="translate(-648.33 472.38) rotate(-82)"/><line class="cls-15" x1="90.88" y1="184.38" x2="85.7" y2="182.42"/><line class="cls-15" x1="90.93" y1="184.46" x2="86.98" y2="184.5"/><polygon class="cls-16" points="203.94 9.97 91.55 91.96 203.94 91.96 316.31 91.96 203.94 9.97"/><polygon class="cls-3" points="302.6 255.76 105.26 255.76 105.58 90.21 302.7 89.92 302.6 255.76"/><g class="cls-17"><rect class="cls-18" x="85.83" y="245.44" width="257.66" height="14.6"/></g><polygon class="cls-3" points="203.93 18.92 101.36 91.79 203.93 91.79 306.49 91.79 203.93 18.92"/><path class="cls-16" d="M560.93,643.5c-1.06-12.59-17.52-22.59-37.73-22.59s-36.67,10-37.73,22.59h-0.1v78.4H561V643.5h-0.1Z" transform="translate(-319.51 -466.25)"/><g class="cls-19"><rect class="cls-20" x="173.74" y="146.93" width="4.44" height="119.87"/></g><g class="cls-19"><rect class="cls-20" x="182.98" y="146.93" width="4.45" height="119.87"/></g><g class="cls-19"><rect class="cls-20" x="192.23" y="146.93" width="4.44" height="119.87"/></g><g class="cls-19"><rect class="cls-20" x="201.47" y="146.93" width="4.44" height="119.87"/></g><g class="cls-19"><rect class="cls-20" x="210.71" y="146.93" width="4.45" height="119.87"/></g><g class="cls-19"><rect class="cls-20" x="219.95" y="146.93" width="4.44" height="119.87"/></g><g class="cls-19"><rect class="cls-20" x="229.2" y="146.93" width="4.44" height="119.87"/></g><circle class="cls-6" cx="233.92" cy="211.5" r="2.65"/><rect class="cls-6" x="164.33" y="182.33" width="4.47" height="11.14"/><rect class="cls-6" x="164.33" y="227.67" width="4.47" height="11.14"/><path class="cls-21" d="M326.47,661.36c-1.83,0-3.31,2.17-3.31,4.84,0,0.38,0,55.26,0,55.26h6.58s0-54.88,0-55.26C329.78,663.52,328.3,661.36,326.47,661.36Z" transform="translate(-319.51 -466.25)"/><g class="cls-22"><rect class="cls-23" x="6.79" y="192.5" width="4.04" height="66.08"/></g><path class="cls-21" d="M339.72,661.36c-1.83,0-3.31,2.17-3.31,4.84,0,0.38,0,55.26,0,55.26H343s0-54.88,0-55.26C343,663.52,341.55,661.36,339.72,661.36Z" transform="translate(-319.51 -466.25)"/><g class="cls-24"><rect class="cls-23" x="20.03" y="192.5" width="4.04" height="66.08"/></g><path class="cls-21" d="M353.38,661.36c-1.83,0-3.31,2.17-3.31,4.84,0,0.38,0,55.26,0,55.26h6.58s0-54.88,0-55.26C356.69,663.52,355.21,661.36,353.38,661.36Z" transform="translate(-319.51 -466.25)"/><g class="cls-25"><rect class="cls-23" x="33.7" y="192.5" width="4.04" height="66.08"/></g><path class="cls-21" d="M366.63,661.36c-1.83,0-3.31,2.17-3.31,4.84,0,0.38,0,55.26,0,55.26h6.57s0-54.88,0-55.26C369.94,663.52,368.45,661.36,366.63,661.36Z" transform="translate(-319.51 -466.25)"/><g class="cls-26"><rect class="cls-23" x="46.94" y="192.5" width="4.04" height="66.08"/></g><rect class="cls-21" x="0.03" y="207.83" width="54.17" height="6.57"/><rect class="cls-23" x="0.03" y="211.03" width="54.17" height="3.37"/><rect class="cls-21" x="0.03" y="242.51" width="54.17" height="6.58"/><rect class="cls-23" y="245.69" width="54.17" height="3.37"/><circle class="cls-27" cx="6.63" cy="210.81" r="0.92"/><circle class="cls-27" cx="6.63" cy="246.15" r="0.92"/><circle class="cls-27" cx="20.21" cy="210.81" r="0.92"/><circle class="cls-27" cx="20.21" cy="246.15" r="0.92"/><circle class="cls-27" cx="33.79" cy="210.81" r="0.92"/><circle class="cls-27" cx="33.79" cy="246.15" r="0.92"/><circle class="cls-27" cx="47.37" cy="210.81" r="0.92"/><circle class="cls-27" cx="47.37" cy="246.15" r="0.92"/><path class="cls-21" d="M380,661.36c-1.83,0-3.31,2.17-3.31,4.84,0,0.38,0,55.26,0,55.26h6.58s0-54.88,0-55.26C383.34,663.52,381.86,661.36,380,661.36Z" transform="translate(-319.51 -466.25)"/><g class="cls-28"><rect class="cls-23" x="60.34" y="192.5" width="4.04" height="66.08"/></g><path class="cls-21" d="M393.27,661.36c-1.83,0-3.31,2.17-3.31,4.84,0,0.38,0,55.26,0,55.26h6.57s0-54.88,0-55.26C396.58,663.52,395.1,661.36,393.27,661.36Z" transform="translate(-319.51 -466.25)"/><g class="cls-29"><rect class="cls-23" x="73.59" y="192.5" width="4.04" height="66.08"/></g><path class="cls-21" d="M406.94,661.36c-1.83,0-3.31,2.17-3.31,4.84,0,0.38,0,55.26,0,55.26h6.58s0-54.88,0-55.26C410.25,663.52,408.77,661.36,406.94,661.36Z" transform="translate(-319.51 -466.25)"/><g class="cls-30"><rect class="cls-23" x="87.25" y="192.5" width="4.04" height="66.08"/></g><path class="cls-21" d="M420.18,661.36c-1.83,0-3.31,2.17-3.31,4.84,0,0.38,0,55.26,0,55.26h6.58s0-54.88,0-55.26C423.49,663.52,422,661.36,420.18,661.36Z" transform="translate(-319.51 -466.25)"/><g class="cls-31"><rect class="cls-23" x="100.49" y="192.5" width="4.04" height="66.08"/></g><rect class="cls-21" x="53.59" y="207.83" width="54.17" height="6.57"/><rect class="cls-23" x="53.59" y="211.03" width="54.17" height="3.37"/><rect class="cls-21" x="53.59" y="242.51" width="54.17" height="6.58"/><rect class="cls-23" x="53.56" y="245.69" width="54.16" height="3.37"/><circle class="cls-27" cx="60.19" cy="210.81" r="0.92"/><circle class="cls-27" cx="60.19" cy="246.15" r="0.92"/><circle class="cls-27" cx="73.77" cy="210.81" r="0.92"/><circle class="cls-27" cx="73.77" cy="246.15" r="0.92"/><circle class="cls-27" cx="87.35" cy="210.81" r="0.92"/><circle class="cls-27" cx="87.35" cy="246.15" r="0.92"/><circle class="cls-27" cx="100.93" cy="210.81" r="0.92"/><circle class="cls-27" cx="100.93" cy="246.15" r="0.92"/><path class="cls-21" d="M624,661.36c-1.83,0-3.31,2.17-3.31,4.84,0,0.38,0,55.26,0,55.26h6.58s0-54.88,0-55.26C627.35,663.52,625.87,661.36,624,661.36Z" transform="translate(-319.51 -466.25)"/><g class="cls-32"><rect class="cls-23" x="304.35" y="192.5" width="4.05" height="66.08"/></g><path class="cls-21" d="M637.28,661.36c-1.83,0-3.31,2.17-3.31,4.84,0,0.38,0,55.26,0,55.26h6.57s0-54.88,0-55.26C640.6,663.52,639.12,661.36,637.28,661.36Z" transform="translate(-319.51 -466.25)"/><g class="cls-33"><rect class="cls-23" x="317.6" y="192.5" width="4.04" height="66.08"/></g><path class="cls-21" d="M650.95,661.36c-1.83,0-3.31,2.17-3.31,4.84,0,0.38,0,55.26,0,55.26h6.58s0-54.88,0-55.26C654.26,663.52,652.78,661.36,650.95,661.36Z" transform="translate(-319.51 -466.25)"/><g class="cls-34"><rect class="cls-23" x="331.26" y="192.5" width="4.04" height="66.08"/></g><path class="cls-21" d="M664.19,661.36c-1.83,0-3.31,2.17-3.31,4.84,0,0.38,0,55.26,0,55.26h6.57s0-54.88,0-55.26C667.5,663.52,666,661.36,664.19,661.36Z" transform="translate(-319.51 -466.25)"/><g class="cls-35"><rect class="cls-23" x="344.51" y="192.5" width="4.04" height="66.08"/></g><rect class="cls-21" x="297.6" y="207.83" width="54.16" height="6.57"/><rect class="cls-23" x="297.6" y="211.03" width="54.16" height="3.37"/><rect class="cls-21" x="297.6" y="242.51" width="54.16" height="6.58"/><rect class="cls-23" x="297.57" y="245.69" width="54.17" height="3.37"/><circle class="cls-27" cx="304.2" cy="210.81" r="0.92"/><circle class="cls-27" cx="304.2" cy="246.15" r="0.92"/><circle class="cls-27" cx="317.78" cy="210.81" r="0.92"/><circle class="cls-27" cx="317.78" cy="246.15" r="0.92"/><circle class="cls-27" cx="331.36" cy="210.81" r="0.92"/><circle class="cls-27" cx="331.36" cy="246.15" r="0.92"/><circle class="cls-27" cx="344.94" cy="210.81" r="0.92"/><circle class="cls-27" cx="344.94" cy="246.15" r="0.92"/><path class="cls-21" d="M677.59,661.36c-1.83,0-3.31,2.17-3.31,4.84,0,0.38,0,55.26,0,55.26h6.58s0-54.88,0-55.26C680.91,663.52,679.42,661.36,677.59,661.36Z" transform="translate(-319.51 -466.25)"/><g class="cls-36"><rect class="cls-23" x="357.91" y="192.5" width="4.04" height="66.08"/></g><path class="cls-21" d="M690.84,661.36c-1.83,0-3.31,2.17-3.31,4.84,0,0.38,0,55.26,0,55.26h6.57s0-54.88,0-55.26C694.15,663.52,692.67,661.36,690.84,661.36Z" transform="translate(-319.51 -466.25)"/><g class="cls-37"><rect class="cls-23" x="371.15" y="192.5" width="4.04" height="66.08"/></g><path class="cls-21" d="M704.5,661.36c-1.83,0-3.31,2.17-3.31,4.84,0,0.38,0,55.26,0,55.26h6.58s0-54.88,0-55.26C707.81,663.52,706.33,661.36,704.5,661.36Z" transform="translate(-319.51 -466.25)"/><g class="cls-38"><rect class="cls-23" x="384.81" y="192.5" width="4.05" height="66.08"/></g><path class="cls-21" d="M717.75,661.36c-1.83,0-3.31,2.17-3.31,4.84,0,0.38,0,55.26,0,55.26H721s0-54.88,0-55.26C721.06,663.52,719.58,661.36,717.75,661.36Z" transform="translate(-319.51 -466.25)"/><g class="cls-39"><rect class="cls-23" x="398.06" y="192.5" width="4.05" height="66.08"/></g><rect class="cls-21" x="351.15" y="207.83" width="54.17" height="6.57"/><rect class="cls-23" x="351.15" y="211.03" width="54.17" height="3.37"/><rect class="cls-21" x="351.15" y="242.51" width="54.17" height="6.58"/><rect class="cls-23" x="351.12" y="245.69" width="54.17" height="3.37"/><circle class="cls-27" cx="357.76" cy="210.81" r="0.92"/><circle class="cls-27" cx="357.76" cy="246.15" r="0.92"/><circle class="cls-27" cx="371.33" cy="210.81" r="0.92"/><circle class="cls-27" cx="371.33" cy="246.15" r="0.92"/><circle class="cls-27" cx="384.91" cy="210.81" r="0.92"/><circle class="cls-27" cx="384.91" cy="246.15" r="0.92"/><circle class="cls-27" cx="398.49" cy="210.81" r="0.92"/><circle class="cls-27" cx="398.49" cy="246.15" r="0.92"/><rect class="cls-40" x="161.47" y="91.48" width="40.53" height="40.53"/><rect class="cls-40" x="207.65" y="91.48" width="40.53" height="40.53"/><path class="cls-20" d="M477.09,554v46.65h46.65V554H477.09Zm40.82,40.82h-35v-35h35v35Z" transform="translate(-319.51 -466.25)"/><rect class="cls-20" x="471.93" y="574.52" width="56.97" height="5.65" transform="translate(-581.83 66.66) rotate(-45.75)"/><rect class="cls-20" x="497.59" y="548.86" width="5.65" height="56.97" transform="translate(-581.84 66.86) rotate(-45.76)"/><path class="cls-20" d="M525.15,554v46.65H571.8V554H525.15ZM566,594.84H531v-35h35v35Z" transform="translate(-319.51 -466.25)"/><rect class="cls-20" x="520" y="574.52" width="56.97" height="5.65" transform="translate(-567.31 101.09) rotate(-45.75)"/><rect class="cls-20" x="545.65" y="548.86" width="5.65" height="56.97" transform="translate(-567.31 101.09) rotate(-45.75)"/><g class="cls-41"><rect class="cls-5" x="204.62" width="204.34" height="285.62"/></g></g></g></svg>