<svg id="Layer_1" data-name="Layer 1" xmlns="http://www.w3.org/2000/svg" viewBox="0 0 301.62 301.62">
  <defs>
    <style>
      .cls-1 {
        fill: none;
        stroke: #282c37;
        stroke-miterlimit: 10;
        stroke-width: 7px;
      }

      .cls-2 {
        fill: #282c37;
      }
    </style>
  </defs>
  <title>a83c4984-7900-4bae-a95c-62537273c36d</title>
  <circle class="cls-1" cx="150.81" cy="150.81" r="147.31"/>
  <path class="cls-2" d="M232.97,74.99a1.45,1.45,0,0,1-.19-0.14,11.88,11.88,0,0,0-10.19-3.21l-41.2.53a11.76,11.76,0,0,0-11.64,11.82c0.08,6.45,5,11.26,11.94,11.55l13.8-.17-20.19,20a69.49,69.49,0,1,0,16.45,16.84l21.2-21v15.38a11.8,11.8,0,1,0,23.6,0V83.27A11.71,11.71,0,0,0,232.97,74.99ZM166.72,204.55c-17.67,17.53-48.48,17.53-66.17,0A46.62,46.62,0,1,1,167,204.273Z"/>
</svg>
