<svg xmlns="http://www.w3.org/2000/svg" xmlns:xlink="http://www.w3.org/1999/xlink" viewBox="0 0 348.04 239.7"><defs><style>.cls-1{fill:none;}.cls-2{isolation:isolate;}.cls-3{fill:#eac271;}.cls-4{clip-path:url(#clip-path);}.cls-5{fill:#9b8878;}.cls-16,.cls-6{fill:#bda999;}.cls-10,.cls-6{mix-blend-mode:multiply;}.cls-7{fill:#dd5454;}.cls-8{fill:#fadf9e;}.cls-9{fill:#ce9f73;}.cls-11{fill:#775d44;}.cls-12{fill:#686868;}.cls-13{fill:#fff;}.cls-14{clip-path:url(#clip-path-2);}.cls-15{fill:#baa898;}.cls-17{fill:#c49957;}.cls-18{clip-path:url(#clip-path-3);}.cls-19{fill:#212221;}.cls-20{fill:#a69e3b;}.cls-21{fill:#935e5a;}.cls-22{fill:#565550;opacity:0.8;}.cls-23{clip-path:url(#clip-path-4);}.cls-24{fill:#734742;}</style><clipPath id="clip-path" transform="translate(-379.65 -238.68)"><rect class="cls-1" x="523.46" y="334.03" width="181.37" height="120.57"/></clipPath><clipPath id="clip-path-2" transform="translate(-379.65 -238.68)"><rect class="cls-1" x="401.95" y="319.31" width="130.12" height="136.19"/></clipPath><clipPath id="clip-path-3" transform="translate(-379.65 -238.68)"><path class="cls-1" d="M499.75,383.77C498.83,372.2,484.54,363,467,363s-31.83,9.2-32.75,20.77h-0.09v72.1h65.67v-72.1h-0.09Z"/></clipPath><clipPath id="clip-path-4" transform="translate(-379.65 -238.68)"><path class="cls-1" d="M556.77,394.42s-6-3.73-5.87-5.57,5.52-.92,7.67,0l-0.15-2s-6.07-2.24-3.42-6.5c0,0,1.85,3.7,4.19,4,0,0,7.21-2.15,8.9.31,0,0,4.6,1.38,3.68-3.53,0,0,3.68,0,1.84,4.45a11.44,11.44,0,0,1,6.6-.15,5,5,0,0,1-.15,3.38,34.45,34.45,0,0,0,10.44-3.38s1.84-.15,8.9,1.07,32.08,0.61,36.83-.92,6.14-3.84,7.67-3.07c0,0,13.12,9,14.32,9.93,0.33,0.27,2.71,1.8,3.47,3.1,0,0,5.33,32.2,5.18,33s2.83,11.45,1.11,13-3.07-5.35-4.57-7.59,0.35-4.91.35-6.85A203.38,203.38,0,0,0,659.09,403c-1.62,6.49-4,16.69-4,16.69s2.78,10.36,3.07,13.2S655,457.45,655,457.45l-4.91.31,2.75-6.91s-0.15-17.85-.22-15.19-0.08-5.68-.08-5.68l-8.26,23-2.94,6.27-5.74-1,5.31-5.55s2.73-13.59,2.77-17.24-2.8-7.09-2.8-7.09-1.07,4.3-2.46,3.38c-1.08-.72-0.75-2.84-0.56-3.74-0.26,1-1,3.48-2.27,3.11-1.53-.46-0.4-4.13-0.4-4.13s-2.3,5.22-3.22,3.22a5.72,5.72,0,0,1,.15-4.3s-4-3.07-4.3-6.29c0,0-14.12,11.82-29.93,2.46l-1.69,11.2s-4.45,20.72-4.45,20.87a19.76,19.76,0,0,1-2.92-.61l-1.53,2.62-6-.92,4.7-6.15,2.2-11.36a8.46,8.46,0,0,1-2.32-3.72c-0.72-2.37.79-9.94-1.21-11.17s-8.75-2.61-9.82-4.14-5.06-11.2-7.21-11.05-6.75,3.68-9.21,3.22a9.47,9.47,0,0,1-4.6-1.84c-0.61-.61-1.38-0.61-1.53-1.07s-0.31-3.22,3.38-8.29S556.77,394.42,556.77,394.42Z"/></clipPath></defs><title>cowShed</title><g class="cls-2"><g id="OBJECTS"><rect class="cls-3" x="143.8" y="95.35" width="181.37" height="120.57"/><g class="cls-4"><rect class="cls-5" x="135.89" y="190.41" width="212.15" height="40.07"/><path class="cls-6" d="M713.86,436.05v-1H528.78v1h21.38v10H528.78v1h50.07v10H551.47v-0.17h-1.32V457H528.78v1h21.38v9.79h1.32V458H608V468.6h1V458H676.8v9.79h1.31V458h35.75v-1H678.11v-0.17H676.8V457h-40V447h77v-1H678.11v-10h35.75Zm-162.39,0H608v10H551.47v-10Zm84.31,21H579.88V447h55.91v10Zm41-11H609v-10H676.8v10Z" transform="translate(-379.65 -238.68)"/></g><polygon class="cls-7" points="338.57 129.36 148.96 129.36 148.96 67.53 319.18 67.53 338.57 129.36"/><rect class="cls-8" x="22.29" y="80.63" width="130.12" height="136.19"/><polygon class="cls-7" points="152.15 81.01 146.93 34.29 87.16 0 27.59 34.62 22.57 81.01 152.15 81.01"/><polygon class="cls-9" points="142.52 80.5 137.88 39.28 87.2 10.42 37.15 39.79 33.28 80.75 142.52 80.5"/><g class="cls-10"><polygon class="cls-7" points="142.52 80.5 137.88 39.28 87.2 10.42 37.15 39.79 33.28 80.75 142.52 80.5"/></g><rect class="cls-11" x="22.11" y="77.15" width="130.49" height="8.24"/><rect class="cls-12" x="56.21" y="36.96" width="29.54" height="29.54"/><rect class="cls-12" x="89.87" y="36.96" width="29.54" height="29.54"/><path class="cls-13" d="M433,272.93v34h34v-34H433Zm29.76,29.76h-25.5V277.18h25.5v25.51Z" transform="translate(-379.65 -238.68)"/><rect class="cls-13" x="429.27" y="287.87" width="41.53" height="4.12" transform="translate(-451.31 171.38) rotate(-45.76)"/><rect class="cls-13" x="447.97" y="269.17" width="4.12" height="41.53" transform="translate(-451.3 171.43) rotate(-45.76)"/><path class="cls-13" d="M468.07,272.93v34h34v-34h-34Zm29.76,29.76h-25.5V277.18h25.5v25.51Z" transform="translate(-379.65 -238.68)"/><rect class="cls-13" x="464.31" y="287.87" width="41.53" height="4.12" transform="translate(-440.64 196.76) rotate(-45.79)"/><rect class="cls-13" x="483.01" y="269.17" width="4.12" height="41.53" transform="translate(-440.7 196.53) rotate(-45.76)"/><g class="cls-14"><rect class="cls-15" x="9.48" y="180.62" width="169.9" height="40.07"/><g class="cls-10"><polygon class="cls-16" points="136.76 208.37 135.73 208.37 135.73 208.54 37.58 208.54 37.58 208.37 36.55 208.37 36.55 208.54 19.8 208.54 19.8 209.57 36.55 209.57 36.55 219.36 37.58 219.36 37.58 209.57 135.73 209.57 135.73 219.36 136.76 219.36 136.76 209.57 164.76 209.57 164.76 208.54 136.76 208.54 136.76 208.37"/><path class="cls-16" d="M544.41,426.26v-1h-145v1H416.2v10H399.45v1h145v-1h-28v-10h28Zm-29,10H417.23v-10h98.16v10Z" transform="translate(-379.65 -238.68)"/></g></g><path class="cls-12" d="M503,381.21c-1-12-16.71-21.54-36-21.54s-35,9.54-36,21.54h-0.1V456h72.15V381.21H503Z" transform="translate(-379.65 -238.68)"/><path class="cls-17" d="M500.83,382.62c-0.95-11.77-15.71-21.13-33.82-21.13s-32.87,9.36-33.82,21.13h-0.09V456h67.83V382.62h-0.09Z" transform="translate(-379.65 -238.68)"/><g class="cls-18"><rect class="cls-11" x="58.8" y="113.61" width="4.24" height="114.29"/><rect class="cls-11" x="67.61" y="113.61" width="4.24" height="114.29"/><rect class="cls-11" x="76.42" y="113.61" width="4.24" height="114.29"/><rect class="cls-11" x="85.23" y="113.61" width="4.23" height="114.29"/><rect class="cls-11" x="94.04" y="113.61" width="4.24" height="114.29"/><rect class="cls-11" x="102.86" y="113.61" width="4.24" height="114.29"/><rect class="cls-11" x="111.67" y="113.61" width="4.23" height="114.29"/></g><circle class="cls-19" cx="116.17" cy="175.18" r="2.53"/><rect class="cls-19" x="49.82" y="147.37" width="4.27" height="10.62"/><rect class="cls-19" x="49.82" y="190.6" width="4.27" height="10.62"/><rect class="cls-12" x="202.8" y="149.28" width="29.54" height="29.54"/><rect class="cls-12" x="236.47" y="149.28" width="29.54" height="29.54"/><path class="cls-13" d="M579.62,385.26v34h34v-34h-34ZM609.38,415H583.87V389.51h25.51V415Z" transform="translate(-379.65 -238.68)"/><rect class="cls-13" x="575.86" y="400.2" width="41.53" height="4.12" transform="translate(-487.44 310.47) rotate(-45.77)"/><rect class="cls-13" x="594.56" y="381.49" width="4.12" height="41.53" transform="translate(-487.44 310.47) rotate(-45.77)"/><path class="cls-13" d="M614.66,385.26v34h34v-34h-34ZM644.42,415H618.91V389.51h25.51V415Z" transform="translate(-379.65 -238.68)"/><rect class="cls-13" x="610.9" y="400.2" width="41.53" height="4.12" transform="translate(-476.82 335.7) rotate(-45.78)"/><rect class="cls-13" x="629.6" y="381.49" width="4.12" height="41.53" transform="translate(-476.84 335.58) rotate(-45.77)"/><rect class="cls-20" y="212.53" width="342.13" height="8.5"/><path class="cls-21" d="M556.77,394.42s-6-3.73-5.87-5.57,5.52-.92,7.67,0l-0.15-2s-6.07-2.24-3.42-6.5c0,0,1.85,3.7,4.19,4,0,0,7.21-2.15,8.9.31,0,0,4.6,1.38,3.68-3.53,0,0,3.68,0,1.84,4.45a11.44,11.44,0,0,1,6.6-.15,5,5,0,0,1-.15,3.38s8.16-2.28,10.44-3.38c0,0,1.84-.15,8.9,1.07s32.08,0.61,36.83-.92,6.14-3.84,7.67-3.07c0,0,13.12,9,14.32,9.93,0.33,0.27,2.71,1.8,3.47,3.1,0,0,5.33,32.2,5.18,33s2.83,11.45,1.11,13-3.07-5.35-4.57-7.59,0.35-4.91.35-6.85A203.38,203.38,0,0,0,659.09,403c-1.62,6.49-4,16.69-4,16.69s2.78,10.36,3.07,13.2S655,457.45,655,457.45l-4.91.31,2.75-6.91s-0.15-17.85-.22-15.19-0.08-5.68-.08-5.68l-8.26,23-2.94,6.27-5.74-1,5.31-5.55s2.73-13.59,2.77-17.24-2.8-7.09-2.8-7.09-1.07,4.3-2.46,3.38c-1.08-.72-0.75-2.84-0.56-3.74-0.26,1-1,3.48-2.27,3.11-1.53-.46-0.4-4.13-0.4-4.13s-2.3,5.22-3.22,3.22a5.72,5.72,0,0,1,.15-4.3s-4-3.07-4.3-6.29c0,0-14.12,11.82-29.93,2.46l-1.69,11.2s-4.45,20.72-4.45,20.87a19.76,19.76,0,0,1-2.92-.61l-1.53,2.62-6-.92,4.7-6.15,2.2-11.36-2.32-3.72s0.79-9.94-1.21-11.17-8.75-2.61-9.82-4.14-5.06-11.2-7.21-11.05-6.75,3.68-9.21,3.22a9.47,9.47,0,0,1-4.6-1.84c-0.61-.61-1.38-0.61-1.53-1.07s-0.31-3.22,3.38-8.29S556.77,394.42,556.77,394.42Z" transform="translate(-379.65 -238.68)"/><ellipse class="cls-19" cx="565.28" cy="394.45" rx="2.03" ry="0.93" transform="translate(-503.42 174.66) rotate(-36.48)"/><circle class="cls-22" cx="565.3" cy="394.69" r="0.6" transform="matrix(0.99, -0.14, 0.14, 0.99, -428.78, -156.76)"/><path class="cls-19" d="M561.36,406.8a4.91,4.91,0,0,1-.52,1.63,3.77,3.77,0,0,1-1.19,1.43,2.29,2.29,0,0,1-1.11.39H558c-0.16,0-.37,0-0.55-0.05a4.85,4.85,0,0,1-2-.78c-0.54-.36-1-0.7-1.38-0.93A5.87,5.87,0,0,0,553,408l-0.45-.12,0.47-.08a3.61,3.61,0,0,1,1.27.1,8,8,0,0,1,1.61.7,8.35,8.35,0,0,0,.81.35,4.8,4.8,0,0,0,.86.21c0.15,0,.27,0,0.44.06l0.46,0a1.43,1.43,0,0,0,.7-0.17,4.18,4.18,0,0,0,1.17-1A13.17,13.17,0,0,0,561.36,406.8Z" transform="translate(-379.65 -238.68)"/><path class="cls-19" d="M553.8,403.3a6.84,6.84,0,0,1,1.38-.49,9.09,9.09,0,0,1,1.47-.26,9.39,9.39,0,0,1,1.73,0,5.79,5.79,0,0,1,1.74.43,2.76,2.76,0,0,1,.74.44,2.42,2.42,0,0,1,.31.26l0.23,0.31a1.51,1.51,0,0,1,.25.6,1,1,0,0,1,0,.48c0,0.27,0,.41,0,0.41l-0.15-.37a1,1,0,0,0-.2-0.37,1.47,1.47,0,0,0-.34-0.38,1.81,1.81,0,0,0-.5-0.32,3.34,3.34,0,0,0-.63-0.24c-0.22-.09-0.49-0.09-0.73-0.16s-0.52-.08-0.79-0.09c-0.54-.06-1.09-0.08-1.61-0.1l-1.44,0C554.39,403.35,553.8,403.3,553.8,403.3Z" transform="translate(-379.65 -238.68)"/><path class="cls-19" d="M559.65,405.59l-0.4.45a3.58,3.58,0,0,0-.62,1,0.59,0.59,0,0,0,0,.25,0.84,0.84,0,0,1,0,.18,1.06,1.06,0,0,1-.17.27,5.17,5.17,0,0,0-.28.62l-0.12.08a1,1,0,0,1-.76-0.43,1.1,1.1,0,0,1-.18-0.41,1.14,1.14,0,0,1,0-.5,1.22,1.22,0,0,1,.25-0.44,2.49,2.49,0,0,1,.33-0.34,3.63,3.63,0,0,1,1.89-.84Z" transform="translate(-379.65 -238.68)"/><path class="cls-19" d="M553.93,405.1a3,3,0,0,1,.21.3,1.82,1.82,0,0,1,.27.82,1.1,1.1,0,0,1-.07.57,0.69,0.69,0,0,1-.44.32,0.59,0.59,0,0,1-.5-0.12l0-.09a2.65,2.65,0,0,0,.13-0.38,0.62,0.62,0,0,1,0-.18,0.64,0.64,0,0,0,.16-0.19,2.21,2.21,0,0,0,.13-0.67,2.86,2.86,0,0,0,0-.35Z" transform="translate(-379.65 -238.68)"/><path class="cls-19" d="M563.56,406a5.56,5.56,0,0,1,.7,1.58,0.32,0.32,0,0,1-.05.28l-0.07.09a8.6,8.6,0,0,1-.59.68,8.25,8.25,0,0,1-.66.61,5.63,5.63,0,0,1-1.59,1,5.63,5.63,0,0,1,.95-1.6,8.25,8.25,0,0,1,.6-0.67,8.62,8.62,0,0,1,.68-0.6l-0.12.38A5.56,5.56,0,0,1,563.56,406Z" transform="translate(-379.65 -238.68)"/><path class="cls-19" d="M565.49,408a1.22,1.22,0,0,1-.31.24A0.9,0.9,0,0,1,564,408a0.29,0.29,0,0,1,.09-0.57,0.9,0.9,0,0,1,1.14.19A1.22,1.22,0,0,1,565.49,408Z" transform="translate(-379.65 -238.68)"/><g class="cls-23"><path class="cls-24" d="M657.75,410.82c-1.59.92-3.7,1.14-5.49,1.63-2.57.71-5.17,1.87-7.84,2.18a43.69,43.69,0,0,1-12.54-.18,17.87,17.87,0,0,0-7.41-.19c-3.08.76-5.71,2.52-8.69,3.5A32.32,32.32,0,0,1,605.65,419c-3.6,0-6.32-1.86-9.47-3.33-2.9-1.35-6.71-.77-9.82-0.77a33.65,33.65,0,0,1-10.44-1.51c-3.56-1.14-8.45-2.72-11.83-.19-5,3.74-.39,12.21.56,16.7,0.5,2.37,1.09,4.78,1.39,7.19s0.09,4.86.51,7.24A23.74,23.74,0,0,0,576,459a97,97,0,0,0,21.29,12.19c8.36,3.51,17.75,7.11,26.94,7.19a59.36,59.36,0,0,0,10.16-.48c3.41-.56,6.76-1.48,10.13-2.24,6.26-1.42,12.76-3.46,17.14-8.42a53.78,53.78,0,0,0,8.68-14.14,21.59,21.59,0,0,0,.79-15.5,60.91,60.91,0,0,0-5.14-12,45.89,45.89,0,0,1-4.09-8.44A50.88,50.88,0,0,0,659.5,412" transform="translate(-379.65 -238.68)"/></g></g></g></svg>