<svg xmlns="http://www.w3.org/2000/svg" xmlns:xlink="http://www.w3.org/1999/xlink" viewBox="0 0 281.23 374.73"><defs><style>.cls-1,.cls-4,.cls-7{fill:none;}.cls-2{isolation:isolate;}.cls-10,.cls-3{fill:#734742;}.cls-4,.cls-7{stroke:#734742;stroke-miterlimit:10;}.cls-4{stroke-width:3.89px;}.cls-5{fill:#9b6965;}.cls-6{fill:#775d44;}.cls-7{stroke-width:2.62px;}.cls-10,.cls-8{opacity:0.5;mix-blend-mode:multiply;}.cls-9{clip-path:url(#clip-path);}.cls-11{fill:#a69e3b;}.cls-12{fill:#935e5a;}.cls-13{fill:#212221;}.cls-14{fill:#565550;opacity:0.8;}.cls-15{clip-path:url(#clip-path-2);}</style><clipPath id="clip-path" transform="translate(-76.96 -109.85)"><path class="cls-1" d="M358.19,178.44c-33.8-.84-40.95,5.29-42.3,8.8H290.15c0-.44,0-0.89-0.07-1.33l23.73-.41-13.51-13.2-12.41,3a39.38,39.38,0,0,0-6.67-11.89l19-14.32-18.68-2.74-8.23,9.69-0.19-.14a39.81,39.81,0,0,0-12-5.7l7.12-23.28-16.73,8.77-1,13h-0.15a39.89,39.89,0,0,0-13.52,2.37l-7.69-22.36-8.38,16.92,6.45,10.46a39.79,39.79,0,0,0-9.59,9.66c-0.17.24-.32,0.48-0.48,0.72l-19.65-13.77,3.17,18.62,11.75,4.83a39.47,39.47,0,0,0-1.9,14.54l-23.37.4,13.51,13.2,11.92-2.89a39.44,39.44,0,0,0,7.28,12.89l-18.68,14.08,18.68,2.74,8.1-9.54a40,40,0,0,0,8.2,4.28L206.36,453.34l4.84,2.86,0.07-.56,40-49.23,39.5,49.72,0.41-.33,0.08,0.62,4.4-.66-0.42-3.18,0.05,0-0.07-.09-30-226.88,1-.4,7.59,22.06,8.38-16.92-6.66-10.81a39.76,39.76,0,0,0,7.5-8.06c0.57-.81,1.09-1.64,1.59-2.48l19.75,13.83-3.17-18.62-12.37-5.09a39.4,39.4,0,0,0,1.32-8.33h25.77c1.35,3.51,8.5,9.64,42.3,8.8L347.06,189Zm-71.57,8.8H264.17c0-.29-0.06-0.59-0.11-0.88l22.49-.39C286.59,186.39,286.61,186.81,286.62,187.24Zm-26.83,8a11.59,11.59,0,1,1,1.91-8.66c0,0.22.06,0.43,0.08,0.65h-4.6a7,7,0,1,0-.19,3.52h4.68A11.55,11.55,0,0,1,259.8,195.25Zm24.65-19.1-22.14,5.38a13.78,13.78,0,0,0-1.85-2.47l17.94-13.51A36,36,0,0,1,284.44,176.15ZM271,158.74L256.33,176a13.84,13.84,0,0,0-2.85-1L260,153.58A36.31,36.31,0,0,1,271,158.74Zm-20.81-6.49-1.71,22.52a14,14,0,0,0-3.26.83l-7.29-21.17A36.39,36.39,0,0,1,250.21,152.26Zm-29.73,15.55a36.27,36.27,0,0,1,8.56-8.67l11.83,19.19a14,14,0,0,0-2,2.3c-0.18.25-.33,0.52-0.49,0.78L220,168.54C220.15,168.3,220.31,168,220.47,167.81Zm-4.83,9.73,20.92,8.6a13.89,13.89,0,0,0-.11,4.15l-22.45.39A36,36,0,0,1,215.64,177.54ZM216,200.61l22-5.36a13.82,13.82,0,0,0,2.6,3.41l-18,13.56A35.94,35.94,0,0,1,216,200.61Zm29,0.91a13.79,13.79,0,0,0,3.87,1l-6.6,21.59a36.19,36.19,0,0,1-12-5.16Zm-3.77,25.93-2.9,9.5,1.23-9.93C240.09,227.18,240.65,227.33,241.21,227.46Zm-17.71,129.2,7.95-64.26L248,318.31Zm27.28-34,26.06,40.81H224.72Zm24.09,45.5-23.57,29-23.06-29h46.64Zm-21.31-49.86,16.65-26.07,8.36,65.22Zm-2.78-4.36-16.31-25.54h32.61ZM212.6,444.84l9.32-75.34,25.65,32.28Zm42.38-43,25.28-31.13,9.61,75.05Zm14.14-118.1h-36.6l4.39-35.52,14.29-7.49,0.93-12.28a39.92,39.92,0,0,0,9.69-1.66ZM252.4,224.91L254.14,202a14,14,0,0,0,3.54-1.58L265,221.84A36.43,36.43,0,0,1,252.4,224.91Zm27.71-15.49a36.27,36.27,0,0,1-6.48,7.05l-12.09-19.6,0.2-.26a14,14,0,0,0,1.44-2.64l18.51,13C281.2,207.77,280.68,208.61,280.11,209.42Zm5.39-11.69-17-7h18.06A35.8,35.8,0,0,1,285.5,197.73Z"/></clipPath><clipPath id="clip-path-2" transform="translate(-76.96 -109.85)"><path class="cls-1" d="M221.41,391.73s6-3.73,5.87-5.57-5.52-.92-7.67,0l0.15-2s6.07-2.24,3.42-6.5c0,0-1.85,3.7-4.19,4,0,0-7.21-2.15-8.9.31,0,0-4.6,1.38-3.68-3.53,0,0-3.68,0-1.84,4.45a11.44,11.44,0,0,0-6.6-.15,5,5,0,0,0,.15,3.38,34.45,34.45,0,0,1-10.44-3.38s-1.84-.15-8.9,1.07-32.08.61-36.83-.92-6.14-3.84-7.67-3.07c0,0-13.12,9-14.32,9.93-0.33.27-2.71,1.8-3.47,3.1,0,0-5.33,32.2-5.18,33s-2.83,11.45-1.11,13,3.07-5.35,4.57-7.59-0.35-4.91-.35-6.85a203.38,203.38,0,0,1,4.67-24.16c1.62,6.49,4,16.69,4,16.69s-2.78,10.36-3.07,13.2,3.22,24.56,3.22,24.56l4.91,0.31-2.75-6.91s0.15-17.85.22-15.19,0.08-5.68.08-5.68l8.26,23,2.94,6.27,5.74-1-5.31-5.55s-2.73-13.59-2.77-17.24,2.8-7.09,2.8-7.09,1.07,4.3,2.46,3.38c1.08-.72.75-2.84,0.56-3.74,0.26,1,1,3.48,2.27,3.11,1.53-.46.4-4.13,0.4-4.13s2.3,5.22,3.22,3.22a5.72,5.72,0,0,0-.15-4.3s4-3.07,4.3-6.29c0,0,14.12,11.82,29.93,2.46l1.69,11.2s4.45,20.72,4.45,20.87a19.76,19.76,0,0,0,2.92-.61l1.53,2.62,6-.92-4.7-6.15L190,435.12a8.46,8.46,0,0,0,2.32-3.72c0.72-2.37-.79-9.94,1.21-11.17s8.75-2.61,9.82-4.14,5.06-11.2,7.21-11.05,6.75,3.68,9.21,3.22a9.47,9.47,0,0,0,4.6-1.84c0.61-.61,1.38-0.61,1.53-1.07s0.31-3.22-3.38-8.29S221.41,391.73,221.41,391.73Z"/></clipPath></defs><title>45967-O4SZC3</title><g class="cls-2"><g id="OBJECTS"><polygon class="cls-3" points="129.4 343.5 134.24 346.36 162.86 114.86 159.38 114.4 129.4 343.5"/><polygon class="cls-3" points="218.68 345.92 214.29 346.58 184.58 114.68 188.07 114.22 218.68 345.92"/><rect class="cls-3" x="153.81" y="173.88" width="41.64" height="4.69"/><rect class="cls-3" x="253.55" y="279.93" width="4.69" height="92.76" transform="translate(-212.36 79.18) rotate(-32.56)"/><rect class="cls-3" x="199.29" y="323.97" width="92.76" height="4.69" transform="translate(-238.53 247.88) rotate(-57.44)"/><rect class="cls-3" x="254.61" y="352.54" width="5.77" height="114.18" transform="translate(-275.9 139.26) rotate(-38.47)"/><rect class="cls-3" x="187.82" y="406.75" width="114.18" height="5.77" transform="translate(-304.43 231.66) rotate(-50.92)"/><rect class="cls-3" x="143.26" y="253.63" width="61.57" height="4.69"/><circle class="cls-3" cx="250.29" cy="188.62" r="7.04" transform="translate(-124.57 176.1) rotate(-55.09)"/><circle class="cls-4" cx="250.29" cy="188.62" r="38.12" transform="translate(-124.58 176.1) rotate(-55.09)"/><polygon class="cls-3" points="204.58 36.51 223.26 39.25 182.26 70.14 178.95 66.69 204.58 36.51"/><polygon class="cls-3" points="174.51 25.86 191.24 17.09 176.22 66.18 171.51 65.33 174.51 25.86"/><polygon class="cls-5" points="143.77 35.83 152.15 18.9 168.85 67.45 164.55 69.53 143.77 35.83"/><polygon class="cls-3" points="123.67 61.52 120.5 42.91 162.54 72.36 160.28 76.58 123.67 61.52"/><polygon class="cls-5" points="123.65 94.5 110.14 81.3 161.47 80.41 162.12 85.15 123.65 94.5"/><polygon class="cls-3" points="142.85 121.31 124.17 118.57 165.17 87.68 168.48 91.14 142.85 121.31"/><polygon class="cls-5" points="174.24 130.87 157.52 139.63 172.53 90.54 177.24 91.39 174.24 130.87"/><polygon class="cls-3" points="205.2 120.45 196.82 137.38 180.12 88.84 184.42 86.76 205.2 120.45"/><polygon class="cls-3" points="224.21 94.32 227.37 112.94 185.33 83.48 187.59 79.27 224.21 94.32"/><polygon class="cls-6" points="223.34 62.45 236.84 75.64 185.52 76.53 184.87 71.79 223.34 62.45"/><rect class="cls-3" x="175.09" y="77.39" width="78.58" height="3.52"/><path class="cls-3" d="M358.19,178.44c-40.8-1-42.77,8.13-42.58,10.56-0.19,2.43,1.78,11.57,42.58,10.56L347.06,189Z" transform="translate(-76.96 -109.85)"/><circle class="cls-7" cx="250.29" cy="188.62" r="12.78" transform="translate(-124.58 176.09) rotate(-55.09)"/><g class="cls-8"><g class="cls-9"><rect class="cls-10" x="173.16" width="107.32" height="374.73"/></g></g><rect class="cls-11" y="340.75" width="237.86" height="7.78"/><path class="cls-12" d="M221.41,391.73s6-3.73,5.87-5.57-5.52-.92-7.67,0l0.15-2s6.07-2.24,3.42-6.5c0,0-1.85,3.7-4.19,4,0,0-7.21-2.15-8.9.31,0,0-4.6,1.38-3.68-3.53,0,0-3.68,0-1.84,4.45a11.44,11.44,0,0,0-6.6-.15,5,5,0,0,0,.15,3.38s-8.16-2.28-10.44-3.38c0,0-1.84-.15-8.9,1.07s-32.08.61-36.83-.92-6.14-3.84-7.67-3.07c0,0-13.12,9-14.32,9.93-0.33.27-2.71,1.8-3.47,3.1,0,0-5.33,32.2-5.18,33s-2.83,11.45-1.11,13,3.07-5.35,4.57-7.59-0.35-4.91-.35-6.85a203.38,203.38,0,0,1,4.67-24.16c1.62,6.49,4,16.69,4,16.69s-2.78,10.36-3.07,13.2,3.22,24.56,3.22,24.56l4.91,0.31-2.75-6.91s0.15-17.85.22-15.19,0.08-5.68.08-5.68l8.26,23,2.94,6.27,5.74-1-5.31-5.55s-2.73-13.59-2.77-17.24,2.8-7.09,2.8-7.09,1.07,4.3,2.46,3.38c1.08-.72.75-2.84,0.56-3.74,0.26,1,1,3.48,2.27,3.11,1.53-.46.4-4.13,0.4-4.13s2.3,5.22,3.22,3.22a5.72,5.72,0,0,0-.15-4.3s4-3.07,4.3-6.29c0,0,14.12,11.82,29.93,2.46l1.69,11.2s4.45,20.72,4.45,20.87a19.76,19.76,0,0,0,2.92-.61l1.53,2.62,6-.92-4.7-6.15L190,435.12l2.32-3.72s-0.79-9.94,1.21-11.17,8.75-2.61,9.82-4.14,5.06-11.2,7.21-11.05,6.75,3.68,9.21,3.22a9.47,9.47,0,0,0,4.6-1.84c0.61-.61,1.38-0.61,1.53-1.07s0.31-3.22-3.38-8.29S221.41,391.73,221.41,391.73Z" transform="translate(-76.96 -109.85)"/><ellipse class="cls-13" cx="212.91" cy="391.77" rx="0.93" ry="2.03" transform="translate(-305.64 220.21) rotate(-53.52)"/><circle class="cls-14" cx="212.89" cy="392" r="0.6" transform="translate(-281.73 438.82) rotate(-82.06)"/><path class="cls-13" d="M216.83,404.11a13.19,13.19,0,0,0,1,1.32,4.17,4.17,0,0,0,1.17,1,1.43,1.43,0,0,0,.7.17l0.46,0c0.17,0,.29,0,0.44-0.06a4.84,4.84,0,0,0,.86-0.21,8.44,8.44,0,0,0,.81-0.35,8,8,0,0,1,1.61-.7,3.61,3.61,0,0,1,1.27-.1l0.47,0.08-0.45.12a5.89,5.89,0,0,0-1.07.44c-0.41.23-.84,0.57-1.38,0.93a4.85,4.85,0,0,1-2,.78c-0.18,0-.39,0-0.55,0h-0.53a2.29,2.29,0,0,1-1.11-.39,3.77,3.77,0,0,1-1.19-1.43A4.91,4.91,0,0,1,216.83,404.11Z" transform="translate(-76.96 -109.85)"/><path class="cls-13" d="M224.39,400.61s-0.59.05-1.44,0.08l-1.44,0c-0.52,0-1.07,0-1.61.1-0.27,0-.53.06-0.79,0.09s-0.51.08-.73,0.16a3.28,3.28,0,0,0-.63.24,1.81,1.81,0,0,0-.5.32,1.44,1.44,0,0,0-.34.38,1,1,0,0,0-.2.37l-0.15.37s0-.14,0-0.41a1,1,0,0,1,0-.48,1.52,1.52,0,0,1,.25-0.6L217,401a2.33,2.33,0,0,1,.31-0.26,2.75,2.75,0,0,1,.74-0.44,5.78,5.78,0,0,1,1.74-.43,9.38,9.38,0,0,1,1.73,0,9,9,0,0,1,1.47.26A6.88,6.88,0,0,1,224.39,400.61Z" transform="translate(-76.96 -109.85)"/><path class="cls-13" d="M218.61,402.77a3.62,3.62,0,0,1,1.89.84,2.47,2.47,0,0,1,.33.34,1.22,1.22,0,0,1,.25.44,1.14,1.14,0,0,1,0,.5,1.09,1.09,0,0,1-.18.41,1,1,0,0,1-.75.43l-0.12-.08a5.21,5.21,0,0,0-.28-0.62,1.06,1.06,0,0,1-.17-0.27,0.82,0.82,0,0,1,0-.18,0.59,0.59,0,0,0,0-.25,3.58,3.58,0,0,0-.62-1l-0.4-.45Z" transform="translate(-76.96 -109.85)"/><path class="cls-13" d="M224.34,402.44s0,0.14,0,.35a2.12,2.12,0,0,0,.13.66,1,1,0,0,0,.16.2,0.07,0.07,0,0,1,0,.07,0.37,0.37,0,0,0,0,.11c0.05,0.13.13,0.38,0.13,0.38l0,0.09a0.71,0.71,0,0,1-.5.12,0.8,0.8,0,0,1-.44-0.31,1.22,1.22,0,0,1-.06-0.57,1.78,1.78,0,0,1,.26-0.82c0.12-.19.2-0.3,0.2-0.3Z" transform="translate(-76.96 -109.85)"/><path class="cls-13" d="M214.63,403.34a5.58,5.58,0,0,1,.17,1.72l-0.12-.38a8.6,8.6,0,0,1,.68.6,8.21,8.21,0,0,1,.6.67,5.63,5.63,0,0,1,.95,1.6,5.64,5.64,0,0,1-1.59-1,8.21,8.21,0,0,1-.66-0.61,8.54,8.54,0,0,1-.59-0.68l-0.07-.09a0.32,0.32,0,0,1-.05-0.29A5.55,5.55,0,0,1,214.63,403.34Z" transform="translate(-76.96 -109.85)"/><path class="cls-13" d="M212.7,405.27a1.21,1.21,0,0,1,.21-0.33,1,1,0,0,1,.54-0.31,1,1,0,0,1,.61.11,0.29,0.29,0,0,1,.09.57,1,1,0,0,1-.54.31,1,1,0,0,1-.61-0.12A1.22,1.22,0,0,1,212.7,405.27Z" transform="translate(-76.96 -109.85)"/><g class="cls-15"><path class="cls-3" d="M120.44,408.13c1.59,0.92,3.7,1.14,5.49,1.63,2.57,0.71,5.17,1.87,7.84,2.18a43.69,43.69,0,0,0,12.54-.18,17.87,17.87,0,0,1,7.41-.19c3.08,0.76,5.71,2.52,8.69,3.5a32.32,32.32,0,0,0,10.13,1.27c3.6,0,6.32-1.86,9.47-3.33,2.9-1.35,6.71-.77,9.82-0.77a33.65,33.65,0,0,0,10.44-1.51c3.56-1.14,8.45-2.72,11.83-.19,5,3.74.39,12.21-.56,16.7-0.5,2.37-1.09,4.78-1.39,7.19s-0.09,4.86-.51,7.24a23.74,23.74,0,0,1-9.4,14.64,97,97,0,0,1-21.29,12.19c-8.36,3.51-17.75,7.11-26.94,7.19a59.36,59.36,0,0,1-10.16-.48c-3.41-.56-6.76-1.48-10.13-2.24-6.26-1.42-12.76-3.46-17.14-8.42a53.78,53.78,0,0,1-8.68-14.14,21.59,21.59,0,0,1-.79-15.5,60.91,60.91,0,0,1,5.14-12,45.89,45.89,0,0,0,4.09-8.44,50.88,50.88,0,0,1,2.36-5.12" transform="translate(-76.96 -109.85)"/></g></g></g></svg>