<svg id="Layer_1" data-name="Layer 1" xmlns="http://www.w3.org/2000/svg" viewBox="0 0 305.62 305.62">
  <defs>
    <style>
      .cls-1 {
        fill: none;
        stroke: #282c37;
        stroke-miterlimit: 10;
        stroke-width: 7px;
      }

      .cls-2 {
        fill: #282c37;
      }
    </style>
  </defs>
  <title>9f95d1b1-c7a0-4480-9435-992c789b7400</title>
  <circle class="cls-1" cx="152.81" cy="152.81" r="149.31"/>
  <path class="cls-2" d="M153.02,62.92c-36.17,0-65.61,29.19-65.61,65.09,0,31.8,23.17,58.35,53.5,64v19.65h-17.2a10.91,10.91,0,0,0,0,21.82H140.9v12.28a11,11,0,0,0,22,0V233.51h18.06a10.91,10.91,0,1,0,0-21.82H162.92V192.36a65.27,65.27,0,0,0,55.67-64.35C218.59,92.12,189.2,62.92,153.02,62.92Zm0,108.35a43.28,43.28,0,1,1,43.59-43.28A43.28,43.28,0,0,1,153.02,171.27Z"/>
</svg>
