<svg id="Layer_1" data-name="Layer 1" xmlns="http://www.w3.org/2000/svg" viewBox="0 0 301.88 301.88">
  <defs>
    <style>
      .cls-1 {
        fill: #282c37;
      }

      .cls-2 {
        fill: none;
        stroke: #282c37;
        stroke-miterlimit: 10;
        stroke-width: 7px;
      }
    </style>
  </defs>
  <title>ba9e2cde-1c0c-4722-a7e5-29373f2c2016</title>
  <path class="cls-1" d="M232.17,80.28c1.9,7.45,1.35,14.86-.66,22.19a78.35,78.35,0,0,1-13.13,27.44c-5.77,7.51-13.51,11.42-22.87,12.63-4.94.63-9.57-.65-14.32-1.29a20.369,20.369,0,0,0-4.59-.13c-3.66.36-6.08,2.54-7.11,6.33-0.93,3.47-.79,7.09-1.35,10.61-1.25,7.9-3.1,15.58-7.87,22.21-4.89,6.79-11.7,10-19.89,10.51-9.3.59-18.09-1.8-26.73-4.87a18.76,18.76,0,0,0-5.24-1.34,9.36,9.36,0,0,0-9.12,4.79c-2.44,4-3.2,8.43-3.71,13-0.7,6.3-1,12.66-3.06,18.73a23.84,23.84,0,0,1-3.88,7.33,14.45,14.45,0,0,1-9.23,5.3,59.89,59.89,0,0,1-12.38.65,4.31,4.31,0,0,1-2.11-.42c2.76-1.13,5.61-1.26,8.35-1.87,1.15-.26,2.34-0.44,3.49-0.72,6.41-1.56,9.08-4.53,9.94-11.08,0.76-5.71.38-11.44,0.18-17.17-0.21-6.33-.09-12.6,2.41-18.56,3.1-7.4,8.91-11.16,16.7-12.16,5.55-.72,11,0.54,16.39,1.24,6.56,0.85,13,.75,19.2-1.9,4.55-1.94,6.64-5.39,7.12-10.12a67,67,0,0,0,.12-10,39.17,39.17,0,0,1,4.14-19.33c0.29-.62.55-1.25,0.89-1.84a16.44,16.44,0,0,0,1.53-13.22c-3.51-12.58.11-23.46,8.23-33.18,7.16-8.6,16.69-13.42,27.06-16.87a53.43,53.43,0,0,1,18.18-3.08,36.49,36.49,0,0,1,12.1,2.43C227.38,68.94,230.55,74.01,232.17,80.28Z" transform="translate(0 0)"/>
  <path class="cls-2" d="M298.38,150.85a147.44,147.44,0,1,1-33.57-93.57A147.44,147.44,0,0,1,298.38,150.85Z" transform="translate(0 0)"/>
</svg>
