<svg id="OBJECTS" xmlns="http://www.w3.org/2000/svg" xmlns:xlink="http://www.w3.org/1999/xlink" viewBox="0 0 121.25 98.03"><defs><style>.cls-1{fill:none;}.cls-2{fill:#935e5a;}.cls-3{fill:#212221;}.cls-4{fill:#565550;opacity:0.8;}.cls-5{clip-path:url(#clip-path);}.cls-6{fill:#734742;}</style><clipPath id="clip-path" transform="translate(-73.33 -378.75)"><path class="cls-1" d="M188.71,392.82s6-3.73,5.87-5.57-5.52-.92-7.67,0l0.15-2s6.07-2.24,3.42-6.5c0,0-1.85,3.7-4.19,4,0,0-7.21-2.15-8.9.31,0,0-4.6,1.38-3.68-3.53,0,0-3.68,0-1.84,4.45a11.44,11.44,0,0,0-6.6-.15,5,5,0,0,0,.15,3.38A34.45,34.45,0,0,1,155,383.87s-1.84-.15-8.9,1.07-32.08.61-36.83-.92-6.14-3.84-7.67-3.07c0,0-13.12,9-14.32,9.93-0.33.27-2.71,1.8-3.47,3.1,0,0-5.33,32.2-5.18,33s-2.83,11.45-1.11,13,3.07-5.35,4.57-7.59-0.35-4.91-.35-6.85a203.38,203.38,0,0,1,4.67-24.16c1.62,6.49,4,16.69,4,16.69s-2.78,10.36-3.07,13.2,3.22,24.56,3.22,24.56l4.91,0.31-2.75-6.91s0.15-17.85.22-15.19,0.08-5.68.08-5.68l8.26,23,2.94,6.27,5.74-1-5.31-5.55s-2.73-13.59-2.77-17.24,2.8-7.09,2.8-7.09,1.07,4.3,2.46,3.38c1.08-.72.75-2.84,0.56-3.74,0.26,1,1,3.48,2.27,3.11,1.53-.46.4-4.13,0.4-4.13s2.3,5.22,3.22,3.22a5.72,5.72,0,0,0-.15-4.3s4-3.07,4.3-6.29c0,0,14.12,11.82,29.93,2.46l1.69,11.2s4.45,20.72,4.45,20.87a19.76,19.76,0,0,0,2.92-.61l1.53,2.62,6-.92-4.7-6.15-2.2-11.36a8.46,8.46,0,0,0,2.32-3.72c0.72-2.37-.79-9.94,1.21-11.17s8.75-2.61,9.82-4.14,5.06-11.2,7.21-11.05,6.75,3.68,9.21,3.22a9.47,9.47,0,0,0,4.6-1.84c0.61-.61,1.38-0.61,1.53-1.07s0.31-3.22-3.38-8.29S188.71,392.82,188.71,392.82Z"/></clipPath></defs><title>bull</title><path class="cls-2" d="M188.71,392.82s6-3.73,5.87-5.57-5.52-.92-7.67,0l0.15-2s6.07-2.24,3.42-6.5c0,0-1.85,3.7-4.19,4,0,0-7.21-2.15-8.9.31,0,0-4.6,1.38-3.68-3.53,0,0-3.68,0-1.84,4.45a11.44,11.44,0,0,0-6.6-.15,5,5,0,0,0,.15,3.38S157.26,385,155,383.87c0,0-1.84-.15-8.9,1.07s-32.08.61-36.83-.92-6.14-3.84-7.67-3.07c0,0-13.12,9-14.32,9.93-0.33.27-2.71,1.8-3.47,3.1,0,0-5.33,32.2-5.18,33s-2.83,11.45-1.11,13,3.07-5.35,4.57-7.59-0.35-4.91-.35-6.85a203.38,203.38,0,0,1,4.67-24.16c1.62,6.49,4,16.69,4,16.69s-2.78,10.36-3.07,13.2,3.22,24.56,3.22,24.56l4.91,0.31-2.75-6.91s0.15-17.85.22-15.19,0.08-5.68.08-5.68l8.26,23,2.94,6.27,5.74-1-5.31-5.55s-2.73-13.59-2.77-17.24,2.8-7.09,2.8-7.09,1.07,4.3,2.46,3.38c1.08-.72.75-2.84,0.56-3.74,0.26,1,1,3.48,2.27,3.11,1.53-.46.4-4.13,0.4-4.13s2.3,5.22,3.22,3.22a5.72,5.72,0,0,0-.15-4.3s4-3.07,4.3-6.29c0,0,14.12,11.82,29.93,2.46l1.69,11.2s4.45,20.72,4.45,20.87a19.76,19.76,0,0,0,2.92-.61l1.53,2.62,6-.92-4.7-6.15-2.2-11.36,2.32-3.72s-0.79-9.94,1.21-11.17,8.75-2.61,9.82-4.14,5.06-11.2,7.21-11.05,6.75,3.68,9.21,3.22a9.47,9.47,0,0,0,4.6-1.84c0.61-.61,1.38-0.61,1.53-1.07s0.31-3.22-3.38-8.29S188.71,392.82,188.71,392.82Z" transform="translate(-73.33 -378.75)"/><ellipse class="cls-3" cx="180.2" cy="392.85" rx="0.93" ry="2.03" transform="translate(-316.15 -74.54) rotate(-53.52)"/><circle class="cls-4" cx="180.18" cy="393.09" r="0.6" transform="translate(-307.36 138.47) rotate(-82.06)"/><path class="cls-3" d="M184.13,405.2a13.17,13.17,0,0,0,1,1.32,4.18,4.18,0,0,0,1.17,1,1.43,1.43,0,0,0,.7.17l0.46,0c0.17,0,.29,0,0.44-0.06a4.81,4.81,0,0,0,.86-0.21,8.36,8.36,0,0,0,.81-0.35,8,8,0,0,1,1.61-.7,3.61,3.61,0,0,1,1.27-.1l0.47,0.08-0.45.12a5.87,5.87,0,0,0-1.07.44c-0.41.23-.84,0.57-1.38,0.93a4.85,4.85,0,0,1-2,.78c-0.18,0-.39,0-0.55.05h-0.53a2.29,2.29,0,0,1-1.11-.39,3.77,3.77,0,0,1-1.19-1.43A4.91,4.91,0,0,1,184.13,405.2Z" transform="translate(-73.33 -378.75)"/><path class="cls-3" d="M191.68,401.7s-0.59.05-1.44,0.08l-1.44,0c-0.52,0-1.07,0-1.61.1-0.27,0-.53.06-0.79,0.09s-0.51.08-.73,0.16a3.34,3.34,0,0,0-.63.24,1.82,1.82,0,0,0-.5.32,1.47,1.47,0,0,0-.34.38,1,1,0,0,0-.2.37l-0.15.37s0-.14,0-0.41a1,1,0,0,1,0-.48,1.51,1.51,0,0,1,.25-0.6l0.23-.31a2.42,2.42,0,0,1,.31-0.26,2.76,2.76,0,0,1,.74-0.44,5.79,5.79,0,0,1,1.74-.43,9.39,9.39,0,0,1,1.73,0,9.09,9.09,0,0,1,1.47.26A6.85,6.85,0,0,1,191.68,401.7Z" transform="translate(-73.33 -378.75)"/><path class="cls-3" d="M185.9,403.86a3.63,3.63,0,0,1,1.89.84,2.49,2.49,0,0,1,.33.34,1.22,1.22,0,0,1,.25.44,1.14,1.14,0,0,1,0,.5,1.1,1.1,0,0,1-.18.41,1,1,0,0,1-.76.43l-0.12-.08a5.17,5.17,0,0,0-.28-0.62,1.06,1.06,0,0,1-.17-0.27,0.84,0.84,0,0,1,0-.18,0.59,0.59,0,0,0,0-.25,3.58,3.58,0,0,0-.62-1l-0.4-.45Z" transform="translate(-73.33 -378.75)"/><path class="cls-3" d="M191.63,403.53a2.86,2.86,0,0,0,0,.35,2.21,2.21,0,0,0,.13.67,0.64,0.64,0,0,0,.16.19,0.62,0.62,0,0,1,0,.18,2.65,2.65,0,0,0,.13.38l0,0.09a0.59,0.59,0,0,1-.5.12,0.69,0.69,0,0,1-.44-0.32,1.1,1.1,0,0,1-.07-0.57,1.82,1.82,0,0,1,.27-0.82,3,3,0,0,1,.21-0.3Z" transform="translate(-73.33 -378.75)"/><path class="cls-3" d="M181.92,404.43a5.56,5.56,0,0,1,.17,1.72l-0.12-.38a8.61,8.61,0,0,1,.68.6,8.26,8.26,0,0,1,.6.67,5.63,5.63,0,0,1,.95,1.6,5.63,5.63,0,0,1-1.59-1,8.26,8.26,0,0,1-.66-0.61,8.6,8.6,0,0,1-.59-0.68l-0.07-.09a0.32,0.32,0,0,1-.05-0.29A5.56,5.56,0,0,1,181.92,404.43Z" transform="translate(-73.33 -378.75)"/><path class="cls-3" d="M180,406.36a1.22,1.22,0,0,1,.21-0.33,0.9,0.9,0,0,1,1.14-.19,0.29,0.29,0,0,1,.09.57,0.9,0.9,0,0,1-1.14.19A1.22,1.22,0,0,1,180,406.36Z" transform="translate(-73.33 -378.75)"/><g class="cls-5"><path class="cls-6" d="M87.73,409.22c1.59,0.92,3.7,1.14,5.49,1.63,2.57,0.71,5.17,1.87,7.84,2.18a43.69,43.69,0,0,0,12.54-.18,17.87,17.87,0,0,1,7.41-.19c3.08,0.76,5.71,2.52,8.69,3.5a32.32,32.32,0,0,0,10.13,1.27c3.6,0,6.32-1.86,9.47-3.33,2.9-1.35,6.71-.77,9.82-0.77a33.65,33.65,0,0,0,10.44-1.51c3.56-1.14,8.45-2.72,11.83-.19,5,3.74.39,12.21-.56,16.7-0.5,2.37-1.09,4.78-1.39,7.19s-0.09,4.86-.51,7.24a23.74,23.74,0,0,1-9.4,14.64,97,97,0,0,1-21.29,12.19c-8.36,3.51-17.75,7.11-26.94,7.19a59.36,59.36,0,0,1-10.16-.48c-3.41-.56-6.76-1.48-10.13-2.24-6.26-1.42-12.76-3.46-17.14-8.42a53.78,53.78,0,0,1-8.68-14.14A21.59,21.59,0,0,1,74.4,436a60.91,60.91,0,0,1,5.14-12,45.89,45.89,0,0,0,4.09-8.44A50.88,50.88,0,0,1,86,410.42" transform="translate(-73.33 -378.75)"/></g></svg>